<svg xmlns="http://www.w3.org/2000/svg" xmlns:xlink="http://www.w3.org/1999/xlink" version="1.1" preserveAspectRatio="none" x="0px" y="0px" viewBox="-4.5 0 380.6 187.75">
<defs>

<linearGradient id="Gradient_2" gradientUnits="userSpaceOnUse" x1="264.5" y1="173.03750000000002" x2="264.5" y2="11.062499999999986" spreadMethod="pad">
<stop offset="0%" stop-color="#450000"/>

<stop offset="100%" stop-color="#990000"/>
</linearGradient>

<g id="Symbol_2_0_Layer1_0_FILL">
<path fill="#080000" fill-opacity="0.6" stroke="none" d=" M 4.3 29.3 Q 2.85 29.4 1.85 32.35 0.9 35.3 0.5 39.2 0.05 42.95 0.05 46.05 0.15 48.35 0.4 50.4 0.75 52.35 0.75 54.35 0.65 56.9 -0.6 58.1 -1.8 59.35 -3.15 59.95 -4.35 60.65 -4.5 61.55 -4.5 61.75 -4.25 62 -4.1 62.15 -4 62.5 -3.25 62.5 -3 62.15 -2.9 61.75 -2.65 61.55 L -2.65 61.75 Q -2.65 61.9 -2.65 62 -2.8 62.4 -2.8 62.5 -2.9 62.75 -2.9 63.1 -2.8 63.35 -1.05 63.75 0.75 64.1 1.25 64.8 1.15 67.4 0.75 70.2 0.4 73 0.25 76.05 0.25 78.75 0.25 81.3 0.25 84.1 -0.35 87.05 -0.85 89.95 -0.95 92.8 -0.95 94.75 -0.7 96.3 -0.45 98.05 0.25 99.6 0.05 100.7 -0.45 101.7 -0.95 102.65 -1.2 103.75 -1.2 104.15 -1.05 104.25 -0.95 104.4 -0.95 104.5 -0.85 105 -0.95 106.35 -0.95 107.8 -1.2 107.8 -1.2 108.75 -0.95 109.75 -0.7 110.7 -0.7 111.8 -0.7 113.65 -1.05 114.85 -1.3 116.1 -1.7 117.3 -1.7 117.45 -1.7 117.8 -1.7 118.15 -1.7 118.55 -1.7 118.9 -1.8 119 -1.8 119.25 -2.15 119.5 L -2.05 119.75 Q -1.9 119.9 -1.9 120 -2.05 120 -2.15 120.1 -2.4 120.25 -2.4 120.85 -2.3 121.45 -1.8 122.1 -1.45 122.7 -2.65 123.8 -2.05 124.05 -2.05 124.75 -2.05 125.5 -1.7 125.85 -1.9 125.85 -1.9 126 L -1.9 126.25 Q -1.9 126.35 -1.7 126.35 -1.7 126.25 -1.55 126.25 L -1.45 126.1 Q -1.3 126.1 -1.2 126.25 -1.2 126.35 -1.2 126.6 -1.3 126.7 -1.7 126.7 -2.15 126.7 -2.15 127.1 -2.15 127.3 -2.15 127.7 -2.15 128.05 -2.15 128.3 -2.15 128.65 -2.15 128.9 -2.15 129.15 -2.15 129.3 -2.15 132.55 -1.3 135.65 -0.6 138.8 0.75 139.05 0.65 139.3 0.5 139.4 L 0.5 139.55 Q 0.65 140.85 1.5 141.25 2.45 141.6 2.6 143.8 2.6 145.25 2.6 146.85 2.7 147.6 3.1 148.2 3.55 148.8 3.7 149.55 3.55 149.9 3.55 150.4 3.55 150.9 3.55 151 3.55 151.25 3.95 151.15 4.3 151.15 4.3 151.25 L 4.3 151.35 Q 4.2 151.35 4.05 151.5 4.8 152.7 5.4 153.45 6 154.3 6.5 154.3 6.4 154.55 10.3 156.4 14.3 158.35 21.9 158.55 23 158.45 24.2 158.35 25.4 158.1 26.65 158.1 27.5 158.35 27.5 158.8 27.6 159.2 27.85 159.3 L 28.25 159.2 Q 28.85 158.95 28.85 158.8 L 28.85 158.55 Q 29.8 158.95 30.3 159.2 30.8 159.55 31.15 159.55 32.4 159.45 34.45 157.95 36.4 156.5 38.5 154.8 40.45 153.2 41.4 152.6 41.05 152.95 43 151.5 44.95 150.15 47.05 147.85 49.2 145.65 49.35 143.55 49.35 143.2 49.35 142.85 49.45 142.7 50.3 140.75 51.2 138.8 51.3 138.55 L 51.2 138.05 Q 51.05 137.7 51.05 137.35 51.2 134.9 51.8 131.95 52.5 129.15 52.65 127.3 52.5 126 52.4 125.15 52.25 124.15 52.05 123.05 52.15 123.05 52.4 122.95 52.5 122.8 52.65 122.55 52.5 122.2 52.4 121.95 52.25 121.7 52.05 121.6 51.3 117.3 50.95 113.65 50.55 110.1 50.55 106.8 50.55 104.85 50.7 102.9 50.8 100.95 50.8 99 50.8 98.65 50.8 98.25 50.8 97.9 50.8 97.3 49.6 92.15 49.45 88.5 49.2 84.7 49.35 83.5 49.1 83 48.25 77.65 47.4 72.25 47.4 60.05 47.15 58.7 46.15 58.25 45.2 57.6 45.05 56.3 45.45 55.3 46.05 54.7 46.8 54.1 46.9 52.85 46.8 52 45.2 51.5 43.75 51.05 42.15 51.05 41.8 51.05 41.3 51.15 40.8 51.4 40.45 51.5 40.05 51.9 39.95 52.25 39.8 52.75 39.8 53.1 39.95 53.7 40.45 54.35 40.8 54.95 40.9 56.05 40.8 57.5 40.2 58.6 39.7 59.8 39.35 61.05 38.6 64.7 38.1 70.3 37.65 75.95 37.4 81.2 37.15 86.45 37.15 89 37.15 94 37.65 96.95 38 99.85 38.5 102.3 38.85 104.75 38.85 108.05 38.95 110.5 38.6 112.7 38.35 114.75 37.4 115.35 37.4 115.6 37.65 115.85 37.85 115.95 37.85 116.35 L 37.65 116.35 Q 37.4 116.45 37.4 116.85 L 37.5 116.95 37.65 117.05 37.65 117.2 Q 37.65 117.3 37.4 117.3 37.4 117.05 37.25 117.05 L 37.15 117.05 Q 36.9 117.3 36.75 119.4 36.55 121.45 36.9 122.1 37.15 123.15 37.5 123.9 37.85 124.65 37.85 125.5 37.85 126.1 37.75 126.35 37.65 126.6 37.4 127.3 37.4 127.45 37.4 127.55 37.4 127.7 37.4 127.8 37.25 127.8 35.9 129.65 34.45 131.6 32.85 133.8 31.15 135.85 30.4 136.85 30.05 137.2 28.35 139.05 26.75 141 24.45 143.05 22.25 145 20.3 145.75 18.1 143.55 16.25 141.35 14.45 139.15 14.3 135 14.2 130.5 13.6 126.95 12.95 123.4 12.6 119.5 13.2 118.15 14.3 117.2 15.4 116.2 15.55 114.25 15.4 113.15 14.3 113.3 13.2 113.55 13.1 112.55 13.1 112.45 13.1 112.3 13.1 112.2 13.1 112.05 12.85 111.7 12.7 111.35 12.6 110.95 12.6 110.6 12.6 109.5 13.1 108.3 13.45 107.05 13.6 105.6 13.6 105.35 13.6 105 13.6 104.75 13.6 104.25 14.05 104.4 14.45 104.6 14.8 105 15.05 105.1 16.4 105 17 103.3 17.75 101.7 17.85 99.75 18.1 97.9 18.1 97.05 17.95 94.35 16.75 93.65 15.4 93 13.45 92.9 11.5 92.8 9.3 91.55 9.45 86.55 10.55 82.9 11.65 79.1 11.75 73.6 11.75 70.7 11.5 67.75 11.4 64.8 11.25 62 11.4 59.7 12.85 58.35 14.3 56.9 16 55.3 L 16.25 55.45 Q 16.4 55.55 16.5 55.55 16.85 55.45 17.6 54.7 18.35 53.85 18.85 53.6 18.45 53.95 21.25 51.9 24.1 49.95 27.15 47.25 30.05 44.45 30.4 42.6 30.4 42 30.9 41.9 31.3 41.75 31.4 41.25 L 31.4 41 Q 31.05 41 30.8 41 30.55 41 30.4 41 28.45 41 26.9 40.65 25.4 40.4 24.1 40.3 23.45 40.4 23 40.8 22.35 41.25 21.9 41.25 21.65 41.25 21.5 41.15 21.4 41 21.25 41 L 21.15 41.15 21 41.25 Q 21.15 41.25 21.15 41.4 L 21.25 41.5 Q 21.25 41.65 21.15 41.65 21.15 41.75 21 41.75 20.9 41.75 20.65 41.65 20.55 41.65 20.3 41.5 20.05 41.65 19.95 42.25 19.95 42.75 19.55 42.85 19.45 42.85 19.2 42.75 18.95 42.6 18.85 42.6 18.7 42.6 17.25 44.05 15.8 45.4 14.05 46.75 12.35 48.2 11.5 48.35 11.4 48.1 10.65 45.8 9.9 43.35 9.8 41.25 9.8 39.45 10.05 37.5 10.3 35.4 10.3 33.55 10.15 30.9 8.45 30.05 6.6 29.2 4.3 29.3 M 138.35 27.45 Q 137.15 27.45 137.25 26.75 137.25 26.15 136.3 26 135.9 26 135.55 26 135.3 26 135.05 26 133.7 25.75 132.6 25.4 131.65 25.05 130.3 25.05 128.7 25.25 127.25 27.7 125.8 30.15 125.65 32 125.65 32.7 125.8 33.55 125.9 34.3 125.9 35.05 125.65 37 123.85 38.95 122.1 40.8 121.65 43.45 121.75 45.05 122.6 45.55 123.45 46.15 123.6 47.25 L 123.6 47.5 Q 123.6 47.6 123.6 47.75 122.6 51.05 122.25 52.25 122 53.6 121.15 55.3 120.4 57.15 117.85 62 117.7 62.4 117.35 64.6 117.1 66.8 116.6 68.95 116.25 71.15 115.9 71.55 115.9 71.9 115.9 72.25 115.9 72.65 115.65 72.5 115.4 72.4 115.4 72.75 115.4 73 115.5 73.15 115.65 73.35 115.65 73.5 115.4 73.75 115.05 73.75 114.65 73.85 114.65 74 115.75 73.85 114.65 74.1 113.7 74.35 112.25 76.55 110.75 78.6 110.65 84.25 110.65 84.5 110.75 84.6 L 110.9 84.7 Q 110.5 85.8 110.3 86.05 110.15 86.45 110.15 86.55 110.15 86.7 110.3 86.9 110.4 87.05 110.4 87.3 110.3 87.75 109.9 89.75 109.55 91.7 108.8 93.75 108.1 95.95 106.85 96.8 105.65 96.7 104.4 96.55 103.3 96.3 101.85 96.3 101.75 96.3 101.35 96.3 101.1 96.3 100.9 96.3 99.15 93 98.3 88.75 97.45 84.6 96.85 80.55 96.85 79.95 96.85 79.25 96.85 78.5 96.85 77.75 96.85 76.65 96.35 75.3 96 74 95.85 72.75 95.85 72.65 96 72.4 96.1 72.15 96.1 72.05 95.4 71.15 94.9 68.85 94.4 66.65 94.15 64.35 93.9 62 93.9 61.05 93.9 59.1 94.3 57.15 94.55 55.05 94.65 53 93.9 53.25 93.3 51.9 92.7 50.55 90.85 45.55 91.6 44.8 91.95 43.85 92.45 42.85 92.6 41.5 92.1 41 91 40.65 90 40.4 88.9 40.3 88.2 39.55 88.3 38.7 88.3 37.85 87.35 37.7 86.95 37.7 86.6 37.7 86.25 37.7 86 37.7 85.85 37.6 85.85 37.25 85.85 37.1 86 36.75 86.1 36.5 86.35 36.5 86.7 36.5 86.95 36.65 87.2 36.75 87.55 36.75 88.9 36.65 89.75 35.3 90.6 33.95 90.6 32.95 90.4 30.75 88.55 30.5 86.7 30.4 86.35 29.3 87.45 28.35 88.2 27 88.8 25.5 88.9 23.55 88.65 22.35 86.85 21.75 85.15 21.25 83.3 20.9 81.45 20.5 81.35 19.8 81.45 19.4 81.6 19.15 81.6 18.95 81.6 18.8 81.6 18.45 81.45 18.05 81.35 17.7 81.35 17.45 81.35 17.35 81.6 17.1 81.85 16.95 81.85 16.75 81.6 14.4 79.5 14.4 77.55 14.4 77.3 14.05 77.95 13.3 78.55 12.6 79.25 11.85 79.25 10.25 79.25 9.75 78.9 9.65 78.55 9.55 78.3 9.55 77.95 9.55 77.7 9.55 77.45 9.55 77.3 9.55 77.05 9.55 76.95 9.4 76.7 9.3 76.6 9.3 76.35 9.3 76.2 9.3 L 76.1 9.3 Q 75.5 9.05 75.1 8.9 74.75 8.8 74.5 8.8 74.25 8.8 74 9.05 73.9 9.3 73.55 9.3 72.45 7.95 71.45 8.2 70.35 8.3 69.25 7.8 68.65 8.55 68.4 9.55 68.05 10.5 66.8 10.75 66.95 11.95 67.8 12.6 68.55 13.05 68.65 13.8 68.55 15.25 67.65 15.65 66.7 16 66.55 16.75 66.7 17.35 66.8 17.6 67.05 17.85 67.2 18.05 67.05 18.05 66.95 18.2 66.95 18.45 66.8 18.8 66.95 19.4 67.65 20.75 68.4 22 68.9 22.95 68.9 23.45 68.65 23.55 68.4 23.8 68.4 24.05 68.4 24.4 68.65 24.65 68.9 25.05 68.9 25.5 68.9 25.75 68.75 26 68.65 26.35 68.65 26.75 68.75 27.45 69.25 27.7 69.8482421875 27.94921875 69.85 28.35 69.846484375 28.198046875 69.4 27.95 69 27.85 68.9 27.7 L 68.75 27.95 Q 68.65 28.1 68.65 28.35 68.65 29.3 69 29.8 69.4 30.15 69.4 30.5 L 69.15 30.65 68.9 30.75 Q 69.15 32.35 69.65 34.55 70.1 36.75 70.1 37 L 70.35 36.4 Q 70.5 35.9 70.6 35.75 L 70.75 35.9 Q 70.75 36 70.85 36.25 70.75 36.75 70.35 37.1 70.1 37.35 69.85 37.7 70.6 37.7 70.6 38.45 70.6 38.6 70.5 38.8 70.35 39.05 70.35 39.55 L 70.35 39.8 Q 70.6 39.7 70.85 39.55 71.2 39.3 71.45 39.3 71.6 39.2 71.7 39.3 71.95 39.45 71.95 39.8 70.25 41.25 69.25 43.85 68.4 46.4 68.4 48.2 68.4 49.2 68.4 50.05 68.4 50.8 68.4 51.75 68.4 52.25 68.3 54.2 68.15 56.15 67.9 58.6 67.65 60.9 67.45 62.5 67.45 63.6 67.45 64.8 67.45 65.7 67.2 66.15 67.05 66.8 66.8 67.25 66.8 67.65 66.8 68.1 66.8 68.6 66.8 68.95 66.8 70.2 66.7 71.05 66.7 72.05 66.55 72.75 66.7 75.3 67.2 76.9 67.55 78.35 67.65 79.25 67.55 79.85 67.55 80.35 67.45 80.8 67.45 81.55 67.45 81.9 67.45 82.4 67.45 82.9 67.45 83.25 67.3 84.35 66.95 84.85 66.7 85.45 66.55 86.3 65.95 87.75 65.6 92.05 65.25 96.3 64.75 101.2 64.4 106.2 63.65 110 63.65 110.25 63.65 110.5 63.65 110.85 63.65 110.95 63.5 113.15 62.9 115.25 62.4 117.3 62.2 119 62.2 120.75 62.2 122.2 62.2 123.8 62.2 125.25 61.95 128.05 60.85 130.15 59.75 132.1 59.6 135.25 59.75 137.45 60.7 138.2 61.7 138.8 61.8 140.5 61.45 141.35 61.2 142.2 60.85 143.05 60.85 143.55 60.85 144.05 60.35 144.05 60 144.15 59.85 144.55 59.85 144.65 60.1 144.9 60.35 145 60.35 145.25 60.1 145.65 59.75 145.75 59.35 146 59.35 146.5 59.5 147.7 60.1 148.3 60.85 148.8 60.95 150.05 60.6 150.4 60.45 150.65 60.35 150.9 60.35 151.25 60.35 152 60.35 152.7 60.35 153.95 59.6 154.4 58.9 155.05 58.4 155.3 58.4 155.65 58.4 156 58.25 157.25 57.55 157.6 56.8 157.95 56.7 159.55 56.7 160.65 57.3 162.5 57.8 164.2 58.4 165.8 58.05 166 57.55 168.85 57.2 171.5 57.2 173.45 57.2 175.9 58.65 177.85 60 179.95 62.2 180.05 64.85 178.1 65.5 176.65 66.2 175.2 66.7 174.8 L 66.55 174.55 Q 66.45 174.45 66.45 174.3 66.45 174.1 66.55 173.95 66.7 173.85 66.7 173.7 68.15 167.6 68.75 161.4 69.4 155.15 69.4 150.5 69.85 150.25 70.75 148.45 71.6 146.6 71.7 145.75 71.6 144.8 71.6 143.8 71.4517578125 142.9109375 71.45 141.95 71.4578125 142.296875 71.7 140.65 71.95 138.7 72.45 135.4 72.9 131.95 73.65 128.8 74.25 124.5 75.5 123.55 76.7 122.45 77.8 121.35 78.8 120.25 78.9 115.75 78.65 113.9 77.3 112.8 75.85 111.8 75.6 109.5 75.6 107.8 75.95 107.2 76.45 106.55 78.4 103.5 77.45 102.9 76.45 100.85 75.5 98.75 75.35 98.25 75.35 97.65 75.5 97.55 75.75 97.3 76.35 97.3 77.7 97.3 78.65 97.65 79.65 98.05 80.85 98.25 81 97.15 81.95 96.45 83.05 95.6 83.2 94.5 83.05 93.5 82.45 93 81.7 92.55 81.6 91.55 82.55 90.45 83.3 88.85 84.05 87.4 86.1 87.3 86.25 91.3 86.85 94.35 87.55 97.4 88.45 98.75 L 88.8 98.75 Q 88.9 98.9 88.9 99 88.9 99.25 88.9 99.35 L 88.9 99.5 Q 89.65 100.85 90.6 101.7 91.6 102.55 91.6 104.75 91.6 105.7 91.5 106.7 91.35 107.55 91.35 108.55 91.5 109.85 92.2 110.7 93.05 111.7 93.05 112.3 93.05 112.7 93.05 113.05 94.15 113.65 95.4 114.25 96.6 114.85 97.35 116.2 97.35 116.85 97.35 117.3 97.35 117.7 97.35 118.3 97.45 121.7 98.3 123.65 99.3 125.6 99.4 127.8 99.05 128.05 97.8 128.4 96.6 128.9 95.4 129.05 94.3 129.05 91 130.4 87.7 131.6 84.65 133.3 81.6 134.9 81.35 136.25 82.3 136.5 85.75 137.8 89.15 139.05 92.8 139.3 93.45 139.3 93.9 139.15 94.55 138.9 95.15 138.8 95.15 138.9 95 139.05 L 94.9 139.05 Q 94.9 139.15 95 139.4 95.15 139.55 95.4 139.55 95.5 139.55 95.85 139.4 96.09765625 139.15234375 96.1 139.05 L 96.1 139.3 Q 96.1 139.4 95.85 139.8 95.65 140 95.65 140.25 95.75 140.65 97.35 140.75 98.9 141 99.8 141.5 97.2 142.35 94.05 143.7 90.85 145 88.55 146.6 86.25 148.1 86.1 149.3 86.35 149.55 88.45 150.15 90.5 150.75 91.35 151 L 91.5 150.75 Q 91.6 150.5 91.85 150.5 92.2 150.5 92.35 150.9 92.6 151.25 93.05 151.5 93.45 151.5 93.65 151.25 93.8 151 94.4 151 94.65 151.15 94.9 151.5 95 152 95.65 152 95.65 151.6 95.75 151.6 95.85 151.5 96.1 151.5 96.5 151.5 96.85 151.5 97.35 151.5 97.2 151.25 97.1 151 97.6 151 97.95 151 98.3 151 99.55 150.5 100.75 150.05 102 149.55 103.05 149.05 103.55 151.35 104.65 153.7 105.65 155.9 107.35 156 107.45 156 107.85 155.9 108.1 155.75 108.3 155.75 108.1 156.25 108.45 156.4 108.7 156.5 109.05 156.5 109.65 156.5 110.15 156.4 110.65 156.25 111 156.25 111.35 156.25 111.75 156.4 112 156.6 112 156.75 112.35 155.75 113.2 155.65 114.2 155.4 114.3 153.8 114.2 151.85 113.45 150.15 112.85 148.3 112.45 146.25 114.65 146.1 117.5 145.65 120.3 145.15 122.5 144.15 124.7 143.3 124.8 141.75 124.8 141.6 124.8 141.35 124.7 141.25 124.55 141 124.55 141.25 124.45 141.25 L 124.05 141.25 Q 124.05 141.1 124.2 140.85 124.3 140.75 124.55 140.5 124.45 140.5 122.6 140 120.65 139.65 118.35 139.15 115.9 138.8 114.2 138.8 113.2 138.8 112.45 138.8 111.6 138.8 110.9 139.05 110.5 137.95 110.15 136.85 109.8 135.85 109.4 134.75 112.1 134.55 114.65 134.05 117.1 133.55 119.8 133.55 L 119.8 133.3 Q 119.8 133.2 119.8 133.05 119.9 132.35 120.4 132.2 121 132.2 121.15 131.45 121.15 131.35 121.15 131.25 L 121.15 131 Q 121.25 131 121.25 131.1 L 121.4 131.25 Q 121.85 131.25 121.85 130.6 122 130.15 122.1 130 122.25 130 122.6 130.15 122.85 130.25 123.1 130.25 L 123.1 130 Q 122.95 128.9 122.35 128.9 121.85 128.9 121.65 128.3 121.65 127.95 121.4 127.8 121.25 127.7 120.9 127.8 120.75 127.8 120.65 127.8 120.55 127.8 120.3 127.8 119.05 127.55 117 127.1 114.8 126.7 114.65 126.25 114.65 125.85 114.45 125.85 114.3 125.75 113.95 125.75 113.45 125.75 113.2 125.75 112.85 125.75 112.6 125.75 112.45 125.75 112.25 125.75 L 112.1 125.75 Q 112.7 124.4 113.2 122.8 113.55 121.2 113.55 120 113.7 120.1 114.3 117.8 115.05 115.6 115.65 114.75 L 115.5 114.65 Q 115.4 114.5 115.4 114.25 115.5 111.8 116.6 109.4 117.7 106.8 117.85 104.75 117.95 102.65 118.1 98.9 118.2 95 119.05 91.3 120.05 87.65 122.6 86.3 123.6 92.15 123.95 96.95 124.3 101.8 125.55 103.05 L 125.4 103.15 Q 125.3 103.4 125.3 103.75 125.55 105.25 127.75 106.1 129.8 107.05 130.05 110 130.05 111.35 129.95 112.7 129.8 114.15 129.8 115.25 129.8 116.2 129.8 117.05 129.95 118.05 130.3 118.8 130.4 119.75 130.3 120.85 130.15 121.85 130.15 123.05 130.3 128.3 131.25 132.95 132.35 137.6 132.6 138.3 132.6 141.1 133.35 142.6 134.1 144.15 134.2 144.55 134.2 145.25 134.2 146 134.2 146.25 134.3 146.5 134.45 146.75 134.7 146.75 136.3 156 137.15 165.15 137.85 174.3 137.85 180.55 137.85 181.3 137.6 181.75 137.4 182.25 137.4 182.75 137.5 183.35 138.35 183.6 139.2 183.7 139.95 183.7 140.3 183.7 140.65 183.7 140.8 184.7 141.15 185.45 141.55 186.3 142.6 186.3 143 186.3 143.35 186.3 143.95 186.3 144.45 186.55 145.05 186.75 145.7 186.75 146.4 186.65 146.75 186.05 147.15 185.3 147.15 185.05 147.15 184.35 147.25 183.5 147.4 182.5 147.4 182 147.25 180.65 146.9 179.7 146.4 178.6 146.4 177.5 146.4 176.05 146.4 174.55 146.3 173.85 145.9 171.5 145.45 169.05 144.95 166.75 144.45 164.55 144.35 164.3 144.35 164.05 144.45 163.8 144.6 163.45 144.6 163.2 144.1 160.65 143.7 158.95 143.35 157.25 142.85 155.05 142.5 152.95 142 149.05 142.15 148.8 142.25 147.6 142.25 146.5 140.55 141 140.8 139.8 141.4 138.55 142 137.45 142 136 142 135.4 142 134.75 142 134.05 142 133.55 142.15 131.85 142.5 130.75 143 129.65 143 128.8 143 127.1 142.75 125.35 142.6 123.65 142.5 122.1 142.5 121.1 142.5 120.25 142.5 119.4 142.5 118.55 142.5 115.25 141.9 113.65 141.4 112.05 141.3 111.45 141.3 110.95 141.4 110.5 141.55 109.85 141.55 109.5 141.4 106.2 140.65 102.2 139.95 98.05 139.8 94 139.8 92.55 139.95 91.3 140.05 90.1 140.05 88.75 140.05 87.75 140.05 86.8 140.05 85.7 140.05 84.7 140.55 83 140.65 80.7 140.8 78.25 140.8 75.8 140.8 72.5 140.65 69.45 140.45 66.4 140.05 64.45 139.7 61.4 139.55 57.75 139.35 54.2 138.35 52 137.15 47.35 136.15 45.4 135.05 43.35 135.05 40.8 135.05 38.45 136.05 36.85 137 35.3 138.1 33.2 139.2 31 139.8 27.25 139.45 27.25 139.1 27.35 138.7 27.45 138.35 27.45 M 205.4 42.1 Q 204.65 40.05 204.05 39.3 203.45 38.45 202.2 37.25 201 36 198.55 32.85 196.5 32.35 194.15 32 191.85 31.5 190.6 30.15 190.15 30.15 189.75 30.15 187.35 30.05 185 29.3 182.55 28.7 180.35 28.55 180.1 28.55 180.1 28.7 180 28.8 179.9 28.8 179.65 28.8 179.5 28.7 179.25 28.55 179.15 28.55 178.8 28.55 178.3 28.55 176.1 28.45 173.8 27.6 171.35 26.75 171.1 26.85 170.25 27.6 168.9 27.85 167.65 28.1 166.35 28.1 165.5 28.1 164.4 28.1 163.4 28.1 162.4 28.1 161.8 28.1 161.45 28.1 160.95 28.1 160.6 28.1 159.75 28.35 158.15 28.95 156.45 29.55 155 30.4 153.5 31.25 153.4 32.1 153.25 32.95 152.8 32.95 152.15 32.85 152.15 33.35 152.55 33.7 153 34.05 153.5 34.45 153.9 34.8 154 37.25 155.1 38.1 156.2 38.95 157.4 39.55 158.65 40.15 159.15 42.1 158.65 43.45 157.55 44.45 156.55 45.4 156.45 47.35 156.95 48.6 158.75 49.1 160.45 49.55 160.6 50.55 160.6 51.15 160.25 51.65 160 52 159.85 52.6 159.85 52.75 160 53 160.1 53.1 160.1 53.35 159.25 53.35 158.4 53.45 157.65 53.45 157.15 53.85 157.15 53.95 157.15 54.1 157.15 54.2 157.15 54.35 157.05 55.05 156.55 55.05 155.95 55.2 155.85 55.8 156.1 56.4 157.8 57 159.35 57.5 160.1 58.1 159.75 58.35 159.6 58.6 159.35 58.95 159.35 59.35 159.5 59.95 159.75 60.55 160.1 61.3 160.1 61.9 160.1 62.15 159.6 62.4 159.25 62.65 159.15 63.35 159.15 63.6 158.9 65.2 158.75 66.8 158.4 68.6 158.05 70.3 157.65 71.05 157.65 71.4 157.65 71.9 157.65 72.25 157.55 72.4 157.55 72.65 157.15 72.9 157.15 73.25 157.15 73.6 157.05 75.1 156.95 75.8 156.7 76.65 156.7 77.4 156.7 77.75 156.8 78 156.95 78.35 156.95 78.6 156.55 80.35 156.3 82.05 156.2 83.85 156.2 85.35 156.2 88 156.45 89.95 156.7 91.9 156.95 92.9 156.95 93.25 156.95 93.5 156.95 93.9 156.95 94.1 156.95 94.5 157.05 94.75 157.15 95 157.15 95.1 157.15 95.45 157.15 95.85 157.3 95.85 157.4 95.85 L 157.65 95.85 Q 157.65 95.95 157.65 96.05 157.65 96.3 157.65 96.45 L 157.65 96.55 Q 158.15 97.65 158.4 98.5 158.65 99.35 158.65 100.6 158.5 104 157.8 105.7 157.05 107.55 156.95 110.35 156.95 110.85 157.05 111.45 157.15 112.05 157.15 112.8 157.15 113.75 157.05 114.25 156.95 114.75 156.95 115.1 156.95 115.25 157.05 115.5 157.15 115.6 157.15 115.85 157.15 115.95 157.15 116.1 157.9 117.7 158.05 118.4 158.15 119.15 158.15 119.65 158.15 120 158.15 120.35 158.15 120.6 158.15 120.85 158.75 123.55 159.5 124.9 160.1 126.35 160.6 127.55 161.1 128.9 161.1 131.35 161.1 133.3 159.6 133.45 158.25 133.65 156.95 133.65 155.45 133.65 155.35 135.15 155.35 135.25 155.45 135.5 155.6 135.65 155.6 135.85 155.45 136 154.6 136.5 153.65 136.95 153.4 137.6 156.1 138.05 158.75 138.55 161.3 138.9 163.05 140.4 164.85 141.95 164.85 145.9 164.85 146.35 164.75 147 164.6 147.6 164.4 148.1 165 148.8 165.35 149.65 165.7 150.4 165.85 151.35 165.85 152.45 165.6 153.55 165.5 154.8 165.35 156.15 165.5 156.85 165.6 157.85 165.85 158.8 165.85 159.55 165.85 160.75 165.1 163.35 164.5 166 164.4 168.1 L 164.6 168.2 Q 164.85 168.2 164.85 168.6 164.85 168.7 164.6 168.7 164.4 168.7 164.4 168.85 164.5 171.05 166.45 171.75 168.4 172.6 170.6 172.85 171.6 172.5 171.95 171.65 172.45 170.9 172.9 170.3 173.3 170.8 173.55 170.9 173.65 171.15 173.9 171.15 174.25 171.05 174.85 170.8 175.5 170.4 176.35 170.3 177.05 170.4 177.8 170.65 178.55 170.8 179.9 170.9 181 170.8 181.95 170.65 182.95 170.55 183.3 170.3 183.55 170.4 183.8 170.4 184.05 170.5 184.2 170.6 184.25 170.4 185.6 169.7 187.45 168.7 193.8 166.65 194.55 166.5 195.25 164.9 196.1 163.35 200.5 161.85 201.35 161.85 201.85 161.4 202.35 161 202.35 160.9 202.45 160.9 202.7 161 202.85 161.15 203.05 161.15 203.2 161.15 203.3 161 203.3 160.9 203.3 160.4 203.55 160.4 203.7 160.55 203.75 160.4 204.3 160.15 205.5 159.65 207 158.2 208.45 156.85 208.55 153.8 208.55 153.1 208.3 152.6 208.1 152.1 207.6 151.35 208.1 150.75 208.45 150.4 208.8 149.9 208.8 149.3 208.8 148.95 208.8 148.7 208.7 148.45 208.55 148.1 208.95 147.95 209.3 147.6 209.55 147.2 209.55 146.6 209.8 146.6 210.05 146.75 210.4 146.85 210.5 146.85 211.15 146.85 211.5 146.6 211.85 146.35 211.85 145.65 211.6 145.65 211.5 145.75 L 211.35 145.9 Q 211.15 145.9 211 145.65 210.75 145.5 210.75 145.4 210.75 145.15 211 144.9 211.15 144.55 211.35 144.3 211.5 144.55 211.75 144.55 211.85 144.65 212.1 144.65 212.45 144.55 212.7 144.4 212.95 144.4 213.35 144.3 213.8 144.4 214.55 144.65 215.15 144.8 216.25 144.9 216.6 144.8 217.5 143.7 218.45 142.6 218.6 142.1 218.35 141.25 216.6 141.25 214.9 141.1 214.3 140.4 214.65 139.9 214.8 139.15 214.9 138.55 215.3 138.05 217.85 138.2 219.8 137.2 221.75 136.25 221.85 132.8 221.65 130.85 220.4 131 219.2 131.1 219.05 130.15 220.05 129.05 221 128.05 222.1 126.95 222.35 125.35 222 125.15 221.15 124.4 220.15 123.65 220.05 123.3 220.15 119.65 221.15 117.2 222.1 114.75 222.35 111.35 222.1 107.45 220.05 106.8 217.85 106.1 215.65 105.7 213.45 105.25 213.35 102.05 213.35 101.95 213.35 101.7 213.35 101.45 213.35 101.1 211.75 99.6 210.5 99.5 209.2 99.35 207.1 98.65 207.1 97.8 205.4 97.4 203.8 97.05 202.85 95.35 202.85 94.85 203.05 94.35 203.3 93.9 203.3 93.4 203.2 92.05 201.75 91.8 200.25 91.7 198.55 91.55 196.95 91.55 196.35 90.6 197.8 88.5 199.15 87.3 200.5 86.05 202.2 84.25 203.95 82.5 206.6 78.6 L 207.6 77.65 Q 208.7 76.4 210.05 74.1 211.25 71.9 211.35 68.85 211.35 68.5 211.35 68.1 211.85 66.55 212.1 64.7 212.35 62.85 212.35 60.8 212.25 57 210.65 55.9 209.05 54.8 207.1 52.85 207.1 52.5 207.1 52.15 207.1 51.4 207.2 50.55 207.45 49.8 207.6 49.1 206.35 47.75 206 45.8 205.65 43.85 205.4 42.1 M 180.1 33.35 Q 180.85 33.35 181.6 33.35 182.2 33.35 182.8 33.35 183.9 33.45 186.25 34.45 188.4 35.55 189.5 36.4 190.25 37.6 191 38.95 191.6 40.3 192.35 41.65 193.2 42.75 194.15 43.6 195.15 44.45 196.35 45.3 196.1 46.25 195.75 47 195.4 47.75 195.25 48.6 196.1 50.3 196.95 51.9 197.95 53.45 199.05 54.8 199.05 55.55 199.05 56.4 199.05 57.85 199.15 59.2 199.3 60.55 199.3 61.9 199.3 63 199.15 64.45 198.9 65.9 198.55 67.15 198.55 67.25 198.3 67.4 198.05 67.4 198.05 67.65 198.05 67.75 198.05 68.1 198.05 68.496875 198.05 68.85 198.0458984375 68.6150390625 197.7 69.85 197.35 71.05 196.6 72.4 196.6 72.75 196.6 73.15 196.6 73.25 196.5 73.5 196.35 73.6 196.35 73.85 196.35 74 196.35 74.1 196.35 74.2 196.35 74.35 196.25 75.2 195.65 76.2 195 77.15 194.75 77.65 194.65 77.75 194.55 77.75 194.3 77.75 194.3 78.15 194.15 80.7 191.25 82.5 188.3 84.25 185.35 87.65 183.9 87.05 181.85 86.8 179.75 86.55 177.55 86.55 176.95 86.7 176.95 87.05 176.85 87.55 176.35 87.65 176.45 87.55 175.35 86.55 174.25 85.45 173.4 84.85 173.4 84.6 173.4 84.35 173.4 84.1 173.4 83.85 173.4 82.5 173.05 81.45 172.8 80.35 172.45 79.6 172.7 78.5 173.65 78 174.75 77.5 175.35 76.9 175.35 76.65 175.25 76.4 175.1 76.3 175.1 76.05 175.25 76.05 175.75 75.1 176.35 74.1 176.35 72.4 176.1 71.15 174.25 69.85 172.45 68.5 172.2 64.6 172.05 64.45 172.2 64.1 172.2 63.75 172.45 63.35 L 172.45 63.1 Q 172.7 62.85 174.4 61.9 176.1 60.9 176.35 57.85 176.35 55.3 175.6 55.05 175 54.7 174.4 53.85 L 174.4 53.7 Q 174.4 53.6 174.4 53.35 174.25 52.35 173.9 51.25 173.4 50.2 173.4 49.1 173.4 48.35 173.9 47.75 174.25 47.1 174.4 45.9 174.4 45.65 174.4 45.3 174.4 45.05 174.4 44.8 174.4 44.3 174.65 43.95 174.85 43.7 174.85 42.6 174.85 41.15 174.85 40.3 175.1 39.3 176.7 37.95 178.3 36.65 179.15 33.35 179.25 33.35 179.65 33.35 179.9 33.35 180.1 33.35 M 181.2 93.9 Q 181.45 93.9 181.85 93.9 181.6 93.75 184.75 94.85 187.95 95.85 191.35 97.15 194.9 98.4 195.85 99.15 L 196.1 99.15 Q 196.6 99.15 196.85 99.5 197.1 99.75 197.1 100.35 197.1 100.7 197.1 101.1 198.2 101.55 199.4 102.4 200.65 103.3 201.85 103.9 202.2 103.9 202.6 103.9 202.7 103.9 202.85 103.9 204.65 106.2 205.5 110.6 206.35 115 206.35 118.65 206.25 119.4 206.1 119.65 205.9 119.9 205.75 119.9 205.9 120 205.9 120.1 206 120.1 206.1 120.35 206 120.35 205.75 121 205.65 121.6 205.5 122.3 205.65 123.3 205.65 124.15 205.75 124.9 205.75 125.85 205.4 126.6 205.25 127.7 205.05 128.8 205.05 129.65 205.05 130.5 205.15 131.35 205.25 132.1 205.25 132.8 204.9 134.3 204.55 136.25 204.05 138.2 203.3 139.05 203.3 140.15 203.8 140.5 204.3 141 204.3 141.85 204.3 143.3 203.7 144.05 203.05 144.8 202.85 145.65 202.45 147.85 201.95 148.45 201.6 149.05 199.3 150.75 197.1 152.45 191.35 158.1 191 158.45 188.2 160.05 185.35 161.65 181.45 163.2 177.55 164.7 173.9 164.8 173.9 161.65 173.4 159.2 172.8 156.75 171.95 153.35 171.95 153.2 171.95 152.85 171.95 152.6 171.95 152.35 171.8 152 171.8 151.5 171.7 151.15 171.6 150.4 171.7 148.8 171.8 147.45 171.8 146.1 171.95 144.9 171.95 143.55 171.95 142.1 171.95 140.65 171.95 139.05 172.3 138.9 172.45 138.9 172.7 138.8 172.9 138.8 173.55 138.9 175.25 139.4 177.05 139.8 179.15 139.9 185.15 139.65 187.8 136.85 190.4 134.15 191.35 131.85 193.2 131 195.25 128.65 197.2 126.45 197.35 124.65 197.45 125 197.6 122.45 197.7 120 196.5 117.3 195.15 114.65 191.1 114.4 190.75 114.4 190.25 114.4 189.75 114.4 189.15 114.4 189.15 114.25 189.05 114.15 189.05 113.9 188.65 113.9 188.05 113.65 186.7 113.65 185.5 113.65 184.4 115.85 183.2 118.05 183.2 124.65 183.2 126.7 183.65 126.85 184.05 127.1 184.15 127.55 183.9 129.75 180.35 131.7 176.95 133.65 172.45 133.8 172.2 133.05 171.95 132.35 171.7 131.6 171.6 130.85 171.8 129.05 172.7 126.85 173.55 124.65 173.65 121.85 173.55 119.9 172.8 118.15 171.95 116.45 171.95 114.85 172.2 113.3 172.8 112.55 173.3 111.95 173.9 110.7 174.4 109.6 174.4 106.8 174.25 104.75 173.05 104 171.8 103.3 171.6 102.8 171.7 98.5 174.15 96.2 176.6 93.9 180.6 93.9 181 93.9 181.2 93.9 M 285.8 23.65 Q 286 23.65 284.6 22.85 282.75 21.75 279.7 20.4 276.8 19.15 274.85 19.05 273.75 19.05 272.65 19.05 271.65 18.95 271.15 18.7 270.7 18.3 270.05 18.3 269.95 18.3 269.6 18.3 269.35 18.3 269.1 18.3 268.75 18.2 268.75 17.95 268.6 17.85 268.6 17.7 264.7 17.2 259.2 17.1 253.7 16.95 248.85 16.75 243.95 16.6 241.9 15.75 241.75 16.25 240.65 16.6 239.45 16.85 237.6 17.7 238.35 17.2 235.4 18.3 232.35 19.4 229.2 21 225.9 22.6 225.5 23.3 225.65 23.45 225.75 23.55 L 225.9 23.8 Q 225.5 24.4 224.8 24.55 224.05 24.65 223.8 25.25 224.55 26.15 227.45 26.75 230.4 27.25 232.85 27.7 235.05 27.85 235.75 30.65 236.5 33.45 236.65 37.35 236.85 41.25 237.6 44.8 238.2 46.65 238.6 48.35 239.05 50.2 239.05 52 239.05 53.95 238.8 55.9 238.6 57.85 238.6 59.6 238.6 61.15 238.7 62.65 238.8 63.95 238.8 65.3 238.8 65.9 238.8 66.9 238.7 67.9 238.35 68 238.2 68 237.95 67.9 237.75 67.75 237.35 67.75 237.25 67.75 236.65 68.1 L 235.9 68.5 235.9 68.75 Q 235.9 68.85 235.9 68.95 235.75 69.7 235.4 69.95 234.9 70.2 234.3 70.55 234.3 73.6 233.8 76.3 233.45 78.85 233.35 82.05 233.6 82.75 234.3 83.15 235.05 83.4 235.9 83.75 236 84 236.25 84.35 236.5 84.7 236.85 84.7 237.25 84.7 237.6 84.7 L 237.6 84.95 Q 237.6 85.1 237.6 85.2 237.6 85.45 237.6 85.8 237.6 86.05 237.6 86.3 237.6 86.45 237.6 86.55 L 237.6 86.8 Q 237.6 87.05 237.6 87.3 237.5 87.55 237.35 87.55 L 237.1 87.55 Q 237.00078125 87.55 236.85 87.55 237.0921875 87.5556640625 235.55 88.65 233.8 89.75 233.6 91.3 L 233.7 91.45 Q 233.8 91.55 233.8 91.8 233.8 91.9 233.6 92.05 233.35 92.05 233.35 92.8 233.45 95.2 234.65 97.05 235.9 99 237.25 100.7 238.45 102.4 238.6 104.5 238.6 105.1 238.6 105.45 238.6 105.95 238.6 106.35 239.2 107.55 239.7 109.25 240.3 110.85 240.3 112.8 240.3 114.25 239.9 115.95 239.7 117.55 239.55 119.25 239.55 121.85 239.8 124.4 240.05 126.95 240.05 128.55 240.05 129.9 239.8 131.1 239.55 132.45 239.55 133.8 239.55 134.75 239.8 137.2 240.05 139.55 240.05 140 240.05 140.4 239.9 141.25 239.8 142.1 239.8 143.05 239.9 144.55 240.05 146.1 240.3 147.7 240.3 149.3 240.3 149.9 240.15 150.4 240.05 150.9 240.05 151.25 240.55 152.35 240.9 153.35 241.4 154.3 241.65 155.75 241.5 157.35 241.25 158.95 240.9 160.55 240.8 162 240.8 162.85 241 163.45 241.25 164.2 241.9 164.8 241.5 165.3 241.25 166.15 241.15 166.9 241.15 168.1 241.15 169.45 242.5 169.45 243.85 169.45 244.8 170.05 244.8 169.8 245.05 169.8 245.15 169.8 245.3 169.8 245.8 169.8 246.4 170.05 247 170.3 247.6 170.3 248.35 170.15 248.95 169.05 249.55 167.85 249.55 167 249.55 166.5 249.45 165.9 249.3 165.3 249.1 164.8 249.8 163.95 249.95 162.7 250.2 161.5 250.05 160.3 250.05 159.2 250.05 157.95 250.05 156.6 250.05 155.5 250.2 153.45 250.3 151.35 250.55 149.3 250.55 147 250.55 143.8 250.4 140.65 250.3 137.45 250.3 134.3 250.4 130.5 250.8 126.85 251.3 123.05 251.4 119.25 251.3 116.85 251.3 114.5 251.15 112.3 251.05 110 251.15 107.45 251.75 105.85 252.25 104.4 252.35 101.55 252.35 100.2 252.35 98.75 252.35 97.4 252.35 96.3 252.35 95.7 252.6 95.35 252.85 95.1 252.85 94.5 252.85 94 252.75 93.5 252.6 93.15 252.6 92.8 252.6 92.55 252.75 92.4 253 92.3 253.35 92.3 L 253.6 92.55 Q 253.85 92.55 253.95 92.4 254.2 92.3 254.35 92.3 255.65 93.9 256.5 96.05 257.25 98.15 261.15 102.05 262.25 105.25 263.1 108.75 263.95 112.3 264.85 115.75 264.45 115.85 262.4 117.05 260.3 118.3 259.1 120 258.7 120 258.35 120 L 258.1 120 Q 258.35 121.1 257.4 121.85 256.5 122.45 256.4 122.8 L 257.15 122.8 Q 256.9 122.95 256.9 123.15 256.9 123.3 256.9 123.55 257 124.15 259.45 124.5 261.9 125 264.7 125.35 267.5 125.75 268.6 126.25 L 268.6 126.45 Q 268.6 126.6 268.6 126.85 268.6 127.45 268.85 127.95 269.1 128.3 269.1 129.05 269.1 129.15 269.1 129.3 269.1 129.4 269.1 129.5 269.7 130.15 270.3 130.75 270.95 131.35 271.15 131.7 271.15 132.8 271.8 133.9 272.25 135.15 272.4 135 272.4 135.4 272.4 135.75 L 272.65 135.75 Q 272.75 135.75 272.9 135.85 L 272.9 136 Q 272.9 136.25 272.9 136.35 L 272.9 136.5 Q 272.9 136.85 273.35 136.95 273.85 137.1 273.85 137.35 273.85 137.45 273.85 137.6 L 273.85 137.8 Q 274.1 138.55 275.7 140 277.4 141.5 277.65 141.75 277.65 142.1 277.65 142.6 277.75 144.65 278.85 145.5 280.1 146.35 281.3 146.6 282.55 146.85 282.65 146.75 282.75 146.75 283.15 146.6 283.5 146.5 283.85 146.5 284.25 146.75 284.5 146.75 284.7 146.75 284.85 146.75 287.05 146.6 286.9 143.95 286.7 141.35 285.6 138.3 284.35 135.25 283.4 133.8 L 283.25 133.8 Q 283.15 133.65 283.15 133.55 283.15 133.3 283.25 133.2 283.4 132.95 283.4 132.8 282.15 130.85 280.95 126.85 279.7 122.7 279.1 118.55 279.7 117.7 280.95 116.6 282.15 115.35 283.6 115.25 284.25 115.35 284.6 115.5 284.95 115.75 285.35 115.75 286.3 115.6 287.55 113.65 288.65 111.8 289.6 110.95 289.5 110.85 289.25 110.7 289.1 110.5 288.85 110.5 288.25 110.6 287.75 110.7 287.15 110.95 286.45 110.95 286.7 110.95 284.25 110.1 281.8 109.4 279.6 109.25 278.75 109.4 278.15 109.75 277.65 110.25 277.15 110.25 L 276.9 110.25 Q 276.8 110.25 276.65 110 276.4 109.6 276.4 109.25 276.4 108.9 276.4 108.55 276.4 107.8 276.55 107.05 276.65 106.35 276.65 105.45 276.55 105.25 276.2 103.3 275.7 101.2 275.55 100.2 275.55 100.35 275.45 100.35 275.3 100.45 275.1 100.45 274.95 100.6 274.95 100.45 274.85 100.45 274.85 100.2 274.85 100.1 275.1 99.85 275.2 99.5 275.3 99.5 274.85 98.15 274.35 96.55 273.85 95 272.4 93.75 272.75 93.75 273 93.75 273.2 93.7 273.3 93.5 273.25 93.45 273.15 93 272.9 92.05 272.5 90.85 272.15 89.6 271.9 89.5 271.55 89.5 271.15 89.5 L 271.05 89.5 Q 270.95 89.5 270.8 89.25 270.95 89.1 271.05 88.85 271.05 88.75 271.15 88.5 270.8 87.75 270.55 86.9 270.45 86.05 270.05 85.2 270.45 84.1 271.05 83.4 271.8 82.65 271.9 81.3 271.8 80.35 271.3 79.45 270.8 78.6 270.55 78 270.45 78 270.2 78.15 270.05 78.25 269.85 78.25 269.1 78.25 268.35 77.3 267.65 76.3 267.65 75.3 267.9 72.5 271.05 69.95 274.35 67.25 278.15 63.25 278.5 63.5 278.85 63.5 279.25 63.5 279.35 63.5 279.85 63.5 281.65 62.85 283.5 62.15 285.35 60.9 287.05 59.7 287.15 58 287.15 57.85 287.15 57.75 L 287.4 57.75 Q 287.55 57.75 288.15 56.75 288.65 55.8 289.6 54.8 289.6 54.55 289.5 54.45 289.45 54.35 289.4 54.25 289.6 54.45 290.35 52.85 291.3 50.8 293.4 48.45 293.4 48.35 293.25 48.1 293.25 47.75 293.4 47.75 293.5 47.75 293.75 47.75 L 293.9 47.75 Q 293.9 46.9 293.9 46.4 293.9 45.9 293.9 45.3 293.9 43.35 293.9 41.5 293.9 40.8 293.9 39.9 294 39.05 294.35 38.2 294.85 38.2 293.25 37.25 291.7 36.25 291.3 35.05 291.3 34.8 291.3 34.45 291.3 34.2 291.3 33.8 291.3 32.6 290.85 31.5 290.45 30.4 290.35 30.05 L 290.45 29.9 Q 290.6 29.65 290.6 29.55 290.45 29.2 290.35 29.2 290.1 29.2 290.1 29.05 L 289.5 27.85 Q 288.65 26.5 287.55 25.05 286.65 23.95 285.8 23.65 M 259.8 29.2 Q 261.3 27.85 261.4 25.75 263.75 25.75 265.45 25.4 267.15 25.05 269.1 25.05 269.85 25.05 270.2 25.25 270.45 25.5 271.4 26.25 271.8 26.25 272.15 26.25 272.4 26.35 273.35 27 274.25 27.7 274.35 27.7 L 274.25 27.95 Q 274.1 28.1 274.1 28.55 274.35 28.55 275.95 30.9 277.4 33.1 277.65 34.55 277.65 35.65 277.65 36.75 277.9 37.85 278.25 38.95 278.6 40.05 278.6 41 278.25 44.3 276.2 47.25 274.1 50.2 271.9 52.6 269.7 55.2 269.1 57 L 269.1 57.25 Q 267.25 58.1 266.15 59.6 264.95 60.9 263.85 62.5 263.1 62.5 262.4 62.5 259.35 62.65 257.75 63.5 256.15 64.35 254.7 65.3 253.35 66.15 251.05 66.3 251.3 63.6 251.65 60.55 252 57.5 252.15 54.55 252.15 53.25 251.9 51.15 251.65 49.1 251.3 47.5 251.05 45.9 250.55 45.8 250.8 45.55 250.8 45.15 250.9 44.8 251.05 44.3 L 250.9 44.05 Q 250.9 43.95 250.8 43.7 250.9 43.2 251.65 42.75 252.25 42.25 252.35 41 252.35 40.9 252.35 40.8 252.35 40.65 252.35 40.55 252.5 40.65 252.75 40.8 253 40.8 253.35 40.8 254.35 40.65 255.05 39.7 255.8 38.8 256.4 37.7 256.3 37.25 256.05 37 255.8 36.75 255.3 36.75 254.1 36.75 253.85 36.75 253.45 36.65 252.85 36.25 252.85 35.05 253.1 33.95 253.35 32.85 253.35 31.5 253.35 30.75 253.35 30.05 254.35 30.05 255.05 30.3 255.9 30.5 256.9 30.5 258.5 30.5 259.8 29.2 M 324.1 16.35 Q 324.1 16.25 324.1 16 324 13.9 322.75 11.5 321.55 9.05 321.4 6.45 L 321.3 6.45 Q 319.1 6.25 317.15 5.75 315.05 5.4 312.85 5.25 311.9 5.6 311.3 6.45 310.55 7.35 310.3 8.55 310.45 8.9 310.9 11.95 311.55 14.9 312.25 17.85 313 20.75 313.35 21.25 313.35 21.5 313.25 21.6 313.1 21.85 313.1 22 313.25 23.3 314.2 24.8 315.3 26.25 315.55 27 315.05 27.6 315.2 28.7 315.2 29.8 315.05 30.75 315.55 31.85 316.8 32.7 318 33.45 318.1 35.55 318 36.4 317 37.95 315.9 39.55 314.6 40.3 314.6 40.65 314.6 41 L 314.6 41.25 Q 312.85 42.85 312.4 48.2 312 53.6 311.55 59.95 311.15 66.4 309.35 71.3 308.6 74.2 308.25 76.8 307.85 79.35 307.85 81.8 307.75 83.5 307.75 86.2 307.75 88.85 308.6 90.2 308.6 90.6 308.35 90.7 308.1 90.95 308.1 91.3 308.1 92.15 308.1 92.55 308.1 92.9 308.1 93 308.1 94.35 307.85 95.6 307.6 96.95 307.6 98.25 307.6 100.1 307.75 102.2 307.85 104.15 308.1 105.95 305.8 106.95 303.25 107.2 300.55 107.55 298.1 108.3 298.1 108.75 298.1 108.9 298.1 109 297.85 109 297.75 109 297.5 108.9 297.35 108.75 297.1 108.75 294.8 109.6 292.85 110.7 291 111.8 290.4 113.55 291.75 114.25 293.95 115 296 115.75 297.85 116.2 299.7 116.7 299.95 116.7 300.05 116.7 300.15 116.6 L 300.4 116.45 Q 300.15 116.85 300.15 117.05 300.15 117.3 300.15 117.55 300.3 119.25 301.65 120 303 120.6 303.1 121.95 303.1 122.45 303 122.8 302.85 123.15 302.85 123.55 302.85 123.9 303 124.15 303.25 124.25 303.35 124.5 303.1 125.6 302.25 126.1 301.5 126.7 301.4 127.8 303 129.05 304.45 129.9 306.05 130.85 306.15 134.05 306.15 135.5 305.8 137.1 305.55 138.7 304.55 141.25 L 304.55 141.5 Q 304.55 142.1 304.3 142.2 304.1 142.35 303.85 142.45 304.45 142.6 304.8 142.85 305.05 143.05 305.2 143.55 303.85 144.9 303.6 147.6 303.35 150.25 303.35 152.7 303.35 153.95 303.45 155.05 303.6 156.15 303.6 157.25 303.6 161.5 302.75 163.95 301.9 166.25 300.9 168.2 301.5 168.85 302.35 168.95 303.25 169.2 303.85 169.8 303.95 171.15 304.45 172 304.95 173 306.4 173 307.6 172.85 308 171.9 308.35 170.9 308.85 170.8 309.1 170.8 309.2 170.8 L 309.35 170.8 Q 310.9 169.3 311.4 169.55 312 169.7 312.15 169.7 312.25 169.55 312.5 167.35 312.75 165.05 313.85 158.8 313.85 157.95 313.7 157.25 313.6 156.5 313.6 155.5 313.6 154.2 313.85 153.1 313.95 151.85 314.35 150.75 314.35 150.05 314.1 149.65 313.95 149.2 313.85 149.05 313.95 148.7 314.1 148.55 314.35 148.3 314.35 147.95 314.35 147.6 314.35 147 314.35 146.35 314.35 146 314.35 145.75 314.35 145.65 L 314.35 145.5 Q 314.35 144.3 314.6 140.65 314.8 137.1 315.2 133.3 315.7 129.4 316.15 127.8 316.55 126.45 316.8 124.4 317.15 122.3 317.15 121.2 317 120.75 316.8 120.75 316.4 120.75 316.4 120.25 316.4 118.55 316.8 117.05 317 115.5 317.15 114 317.15 113.65 317.15 113.4 317.15 113.15 317.15 112.8 318.6 111.95 320.8 110.95 323 110 323.85 109.25 L 324 109.4 Q 324.2 109.5 324.35 109.5 323.95 109.45 326.8 108.65 329.7 107.65 333.4 105.95 333.6 107.05 333.85 107.55 334.1 108.05 334.1 108.3 334.1 108.65 334.1 108.9 L 334.1 109.25 Q 334.7 110.35 334.85 110.85 334.95 111.35 334.85 112.3 334.95 114 335.45 114.5 336.05 115 336.2 115.5 336.2 115.75 336.2 116.1 336.2 116.35 336.2 116.7 336.2 116.85 337.3 118.15 338.4 119.5 339.35 121.7 339.25 122.95 338.4 123.4 337.55 123.9 337.4 124.75 337.4 125.15 337.55 125.5 337.65 125.85 337.65 126 L 337.65 126.25 Q 337.65 126.35 337.65 126.45 337.65 128.2 338.4 131.1 339.1 133.9 339.95 136.7 340.8 139.55 341.45 141.25 340.8 141 341.7 141.5 342.55 141.95 343.5 143.2 344.5 144.4 344.6 146.25 344.6 146.6 344.6 147 344.85 147.35 344.95 147.95 345.1 148.45 345.1 149.05 344.85 149.55 342.3 150.5 339.6 151.5 337.65 151.75 337.05 151.75 336.55 151.75 336.05 151.75 335.55 151.75 335.1 151.75 334.7 151.85 334.35 151.85 334.1 152.25 L 334 152.25 Q 333.85 152.25 333.6 152.25 331.65 152.35 330.1 153.55 328.5 154.8 327.5 156 326.7 156.95 326.65 157.2 326.65 157.1 326.55 157 L 326.4 157 326.3 157.25 Q 326.2 157.35 326.2 157.7 328.35 158.55 330.95 159.3 333.4 159.9 335.95 160.05 337.3 160.05 338.4 159.65 339.35 159.3 340.35 158.2 340.6 158.35 340.7 158.35 340.95 158.45 341.2 158.45 341.7 158.35 343.25 157 344.85 155.65 347.15 155.5 347.8 155.75 348.75 159.3 349.85 162.85 350.95 166.5 351.95 170.15 352.9 170.8 L 352.8 170.9 Q 352.65 171.15 352.65 171.5 L 352.9 171.75 353.4 171.75 353.25 171.9 Q 353.15 172.1 353.15 172.25 353.4 173.6 355.25 174.3 357.2 175.2 358.15 175.55 L 357.9 175.8 358.05 175.9 358.15 176.05 358.3 176.05 Q 358.4 176.05 358.65 176.05 359 176.05 359.4 176.15 359.75 176.25 359.85 176.5 360.1 176.15 360.6 175.8 L 361.1 175.55 Q 361.7 175.55 361.95 175.8 362.2 176.05 362.9 176.05 362.9 175.4 363.05 174.8 363.15 174.1 363.15 173.45 362.8 167.35 360.35 162.25 358.05 157.25 357.2 151.25 358.65 151.25 360 151.5 361.45 151.75 362.9 151.75 364 151.75 365 150.5 365.85 149.4 366.6 148.3 366.45 148.3 366.35 148.3 L 366.1 148.3 Q 365.6 148.3 365.1 148.55 364.75 148.7 364.4 148.8 L 364.25 148.55 Q 364.15 148.45 364.15 148.3 362.55 147.45 360.1 147.35 357.8 147.35 355.6 147 354 143.3 352.55 138.55 351.2 133.65 350.2 129.4 349.35 125 349.35 123.05 348.75 122.45 348.05 122.1 347.4 121.7 347.15 120.75 347.15 119 347.4 117.55 347.55 115.95 347.65 114.5 347.3 112.3 346.55 109.25 345.95 106.2 345.1 104 346.7 103.3 348.75 103.15 350.95 103.05 352.9 102.8 353.5 102.4 354.5 100.7 355.45 99 356.1 98.25 355.95 98.25 355.85 98.15 L 355.6 98.05 Q 355.1 98.05 354.5 98.25 353.9 98.5 353.4 98.5 350.95 98.4 350.1 97.8 349.35 97.05 347.15 97.05 346.45 97.05 345.7 97.3 345.1 97.55 344.1 97.55 343.9 97.15 342.4 92.55 340.95 87.75 339.5 82.3 338 76.65 337.9 73.75 337.9 73.35 338 73.15 L 338.15 72.75 Q 338 71.15 336.55 67.9 335.2 64.45 334 61.65 332.75 58.85 333.15 58.7 333.15 58.35 333.25 58.25 L 333.4 58 332.9 58 Q 332.3 57.4 331.4 54.45 330.7 51.5 330.1 48.7 329.45 45.9 329.35 45.55 329.35 45.4 328.15 42.35 326.8 39.3 326.65 34.8 326.65 34.2 326.65 33.45 326.65 32.85 326.65 32.25 326.55 31.5 326.4 31 326.2 30.5 326.2 29.8 326.4 30.9 326.3 29.2 326.05 27.35 325.7 24.4 325.3 21.5 324.85 19.05 324.45 16.6 324.1 16.5 L 324.1 16.35 M 329.7 87.15 Q 330.55 90.2 331.3 93.9 332.15 97.55 332.4 99.75 332.05 100.1 331.4 100.2 330.95 100.2 330.1 100.2 329.35 100.2 328.6 100.2 326.55 101.2 324 101.7 321.4 102.2 319.1 102.8 319.1 102.4 319.1 102.2 319.1 101.8 319.1 101.55 319.2 99.35 320.2 98.15 321.3 96.8 321.4 95.2 321.3 94.35 320.95 94 320.45 93.65 320.45 92.8 320.55 91.7 321.65 91.05 322.75 90.35 322.9 88.75 324.85 88.75 326.2 87.4 327.5 86.05 328.15 84 328.75 84.25 329.7 87.15 Z"/>
</g>

<g id="Symbol_2_0_Layer0_0_FILL">
<path fill="url(#Gradient_2)" stroke="none" d=" M 49.7 46.25 Q 48.25 45.8 46.65 45.8 46.3 45.8 45.8 45.9 45.3 46.15 44.95 46.25 44.55 46.65 44.45 47 44.3 47.5 44.3 47.85 44.45 48.45 44.95 49.1 45.3 49.7 45.4 50.8 45.3 52.25 44.7 53.35 44.2 54.55 43.85 55.8 43.1 59.45 42.6 65.05 42.15 70.7 41.9 75.95 41.65 81.2 41.65 83.75 41.65 88.75 42.15 91.7 42.5 94.6 43 97.05 43.35 99.5 43.35 102.8 43.45 105.25 43.1 107.45 42.85 109.5 41.9 110.1 41.9 110.35 42.15 110.6 42.35 110.7 42.35 111.1 L 42.15 111.1 Q 41.9 111.2 41.9 111.6 L 42 111.7 42.15 111.8 42.15 111.95 Q 42.15 112.05 41.9 112.05 41.9 111.8 41.75 111.8 L 41.65 111.8 Q 41.4 112.05 41.25 114.15 41.05 116.2 41.4 116.85 41.65 117.9 42 118.65 42.35 119.4 42.35 120.25 42.35 120.85 42.25 121.1 42.15 121.35 41.9 122.05 41.9 122.2 41.9 122.3 41.9 122.45 41.9 122.55 41.75 122.55 40.4 124.4 38.95 126.35 37.35 128.55 35.65 130.6 34.9 131.6 34.55 131.95 32.85 133.8 31.25 135.75 28.95 137.8 26.75 139.75 24.8 140.5 22.6 138.3 20.75 136.1 18.95 133.9 18.8 129.75 18.7 125.25 18.1 121.7 17.45 118.15 17.1 114.25 17.7 112.9 18.8 111.95 19.9 110.95 20.05 109 19.9 107.9 18.8 108.05 17.7 108.3 17.6 107.3 17.6 107.2 17.6 107.05 17.6 106.95 17.6 106.8 17.35 106.45 17.2 106.1 17.1 105.7 17.1 105.35 17.1 104.25 17.6 103.05 17.95 101.8 18.1 100.35 18.1 100.1 18.1 99.75 18.1 99.5 18.1 99 18.55 99.15 18.95 99.35 19.3 99.75 19.55 99.85 20.9 99.75 21.5 98.05 22.25 96.45 22.35 94.5 22.6 92.65 22.6 91.8 22.45 89.1 21.25 88.4 19.9 87.75 17.95 87.65 16 87.55 13.8 86.3 13.95 81.3 15.05 77.65 16.15 73.85 16.25 68.35 16.25 65.45 16 62.5 15.9 59.55 15.75 56.75 15.9 54.45 17.35 53.1 18.8 51.65 20.5 50.05 L 20.75 50.2 Q 20.9 50.3 21 50.3 21.35 50.2 22.1 49.45 22.85 48.6 23.35 48.35 22.95 48.7 25.75 46.65 28.6 44.7 31.65 42 34.55 39.2 34.9 37.35 34.9 36.75 35.4 36.65 35.8 36.5 35.9 36 L 35.9 35.75 Q 35.55 35.75 35.3 35.75 35.05 35.75 34.9 35.75 32.95 35.75 31.4 35.4 29.9 35.15 28.6 35.05 27.95 35.15 27.5 35.55 26.85 36 26.4 36 26.15 36 26 35.9 25.9 35.75 25.75 35.75 L 25.65 35.9 25.5 36 Q 25.65 36 25.65 36.15 L 25.75 36.25 Q 25.75 36.4 25.65 36.4 25.65 36.5 25.5 36.5 25.4 36.5 25.15 36.4 25.05 36.4 24.8 36.25 24.55 36.4 24.45 37 24.45 37.5 24.05 37.6 23.95 37.6 23.7 37.5 23.45 37.35 23.35 37.35 23.2 37.35 21.75 38.8 20.3 40.15 18.55 41.5 16.85 42.95 16 43.1 15.9 42.85 15.15 40.55 14.4 38.1 14.3 36 14.3 34.2 14.55 32.25 14.8 30.15 14.8 28.3 14.65 25.65 12.95 24.8 11.1 23.95 8.8 24.05 7.35 24.15 6.35 27.1 5.4 30.05 5 33.95 4.55 37.7 4.55 40.8 4.65 43.1 4.9 45.15 5.25 47.1 5.25 49.1 5.15 51.65 3.9 52.85 2.7 54.1 1.35 54.7 0.15 55.4 0 56.3 0 56.5 0.25 56.75 0.4 56.9 0.5 57.25 1.25 57.25 1.5 56.9 1.6 56.5 1.85 56.3 L 1.85 56.5 Q 1.85 56.65 1.85 56.75 1.7 57.15 1.7 57.25 1.6 57.5 1.6 57.85 1.7 58.1 3.45 58.5 5.25 58.85 5.75 59.55 5.65 62.15 5.25 64.95 4.9 67.75 4.75 70.8 4.75 73.5 4.75 76.05 4.75 78.85 4.15 81.8 3.65 84.7 3.55 87.55 3.55 89.5 3.8 91.05 4.05 92.8 4.75 94.35 4.55 95.45 4.05 96.45 3.55 97.4 3.3 98.5 3.3 98.9 3.45 99 3.55 99.15 3.55 99.25 3.65 99.75 3.55 101.1 3.55 102.55 3.3 102.55 3.3 103.5 3.55 104.5 3.8 105.45 3.8 106.55 3.8 108.4 3.45 109.6 3.2 110.85 2.8 112.05 2.8 112.2 2.8 112.55 2.8 112.9 2.8 113.3 2.8 113.65 2.7 113.75 2.7 114 2.35 114.25 L 2.45 114.5 Q 2.6 114.65 2.6 114.75 2.45 114.75 2.35 114.85 2.1 115 2.1 115.6 2.2 116.2 2.7 116.85 3.05 117.45 1.85 118.55 2.45 118.8 2.45 119.5 2.45 120.25 2.8 120.6 2.6 120.6 2.6 120.75 L 2.6 121 Q 2.6 121.1 2.8 121.1 2.8 121 2.95 121 L 3.05 120.85 Q 3.2 120.85 3.3 121 3.3 121.1 3.3 121.35 3.2 121.45 2.8 121.45 2.35 121.45 2.35 121.85 2.35 122.05 2.35 122.45 2.35 122.8 2.35 123.05 2.35 123.4 2.35 123.65 2.35 123.9 2.35 124.05 2.35 127.3 3.2 130.4 3.9 133.55 5.25 133.8 5.15 134.05 5 134.15 L 5 134.3 Q 5.15 135.6 6 136 6.95 136.35 7.1 138.55 7.1 140 7.1 141.6 7.2 142.35 7.6 142.95 8.05 143.55 8.2 144.3 8.05 144.65 8.05 145.15 8.05 145.65 8.05 145.75 8.05 146 8.45 145.9 8.8 145.9 8.8 146 L 8.8 146.1 Q 8.7 146.1 8.55 146.25 9.3 147.45 9.9 148.2 10.5 149.05 11 149.05 10.9 149.3 14.8 151.15 18.8 153.1 26.4 153.3 27.5 153.2 28.7 153.1 29.9 152.85 31.15 152.85 32 153.1 32 153.55 32.1 153.95 32.35 154.05 L 32.75 153.95 Q 33.35 153.7 33.35 153.55 L 33.35 153.3 Q 34.3 153.7 34.8 153.95 35.3 154.3 35.65 154.3 36.9 154.2 38.95 152.7 40.9 151.25 43 149.55 44.95 147.95 45.9 147.35 45.55 147.7 47.5 146.25 49.45 144.9 51.55 142.6 53.7 140.4 53.85 138.3 53.85 137.95 53.85 137.6 53.95 137.45 54.8 135.5 55.7 133.55 55.8 133.3 L 55.7 132.8 Q 55.55 132.45 55.55 132.1 55.7 129.65 56.3 126.7 57 123.9 57.15 122.05 57 120.75 56.9 119.9 56.75 118.9 56.55 117.8 56.65 117.8 56.9 117.7 57 117.55 57.15 117.3 57 116.95 56.9 116.7 56.75 116.45 56.55 116.35 55.8 112.05 55.45 108.4 55.05 104.85 55.05 101.55 55.05 99.6 55.2 97.65 55.3 95.7 55.3 93.75 55.3 93.4 55.3 93 55.3 92.65 55.3 92.05 54.1 86.9 53.95 83.25 53.7 79.45 53.85 78.25 53.6 77.75 52.75 72.4 51.9 67 51.9 54.8 51.65 53.45 50.65 53 49.7 52.35 49.55 51.05 49.95 50.05 50.55 49.45 51.3 48.85 51.4 47.6 51.3 46.75 49.7 46.25 M 144.3 22 Q 143.95 22 143.6 22.1 143.2 22.2 142.85 22.2 141.65 22.2 141.75 21.5 141.75 20.9 140.8 20.75 140.4 20.75 140.05 20.75 139.8 20.75 139.55 20.75 138.2 20.5 137.1 20.15 136.15 19.8 134.8 19.8 133.2 20 131.75 22.45 130.3 24.9 130.15 26.75 130.15 27.45 130.3 28.3 130.4 29.05 130.4 29.8 130.15 31.75 128.35 33.7 126.6 35.55 126.15 38.2 126.25 39.8 127.1 40.3 127.95 40.9 128.1 42 L 128.1 42.25 Q 128.1 42.35 128.1 42.5 127.1 45.8 126.75 47 126.5 48.35 125.65 50.05 124.9 51.9 122.35 56.75 122.2 57.15 121.85 59.35 121.6 61.55 121.1 63.7 120.75 65.9 120.4 66.3 120.4 66.65 120.4 67 120.4 67.4 120.15 67.25 119.9 67.15 119.9 67.5 119.9 67.75 120 67.9 120.15 68.1 120.15 68.25 119.9 68.5 119.55 68.5 119.15 68.6 119.15 68.75 120.25 68.6 119.15 68.85 118.2 69.1 116.75 71.3 115.25 73.35 115.15 79 115.15 79.25 115.25 79.35 L 115.4 79.45 Q 115 80.55 114.8 80.8 114.65 81.2 114.65 81.3 114.65 81.45 114.8 81.65 114.9 81.8 114.9 82.05 114.8 82.5 114.4 84.5 114.05 86.45 113.3 88.5 112.6 90.7 111.35 91.55 110.15 91.45 108.9 91.3 107.8 91.05 106.35 91.05 106.25 91.05 105.85 91.05 105.6 91.05 105.4 91.05 103.65 87.75 102.8 83.5 101.95 79.35 101.35 75.3 101.35 74.7 101.35 74 101.35 73.25 101.35 72.5 101.35 71.4 100.85 70.05 100.5 68.75 100.35 67.5 100.35 67.4 100.5 67.15 100.6 66.9 100.6 66.8 99.9 65.9 99.4 63.6 98.9 61.4 98.65 59.1 98.4 56.75 98.4 55.8 98.4 53.85 98.8 51.9 99.05 49.8 99.15 47.75 98.4 48 97.8 46.65 97.2 45.3 95.35 40.3 96.1 39.55 96.45 38.6 96.95 37.6 97.1 36.25 96.6 35.75 95.5 35.4 94.5 35.15 93.4 35.05 92.7 34.3 92.8 33.45 92.8 32.6 91.85 32.45 91.45 32.45 91.1 32.45 90.75 32.45 90.5 32.45 90.35 32.35 90.35 32 90.35 31.85 90.5 31.5 90.6 31.25 90.85 31.25 91.2 31.25 91.45 31.4 91.7 31.5 92.05 31.5 93.4 31.4 94.25 30.05 95.1 28.7 95.1 27.7 94.9 25.5 93.05 25.25 91.2 25.15 90.85 24.05 91.95 23.1 92.7 21.75 93.3 20.25 93.4 18.3 93.15 17.1 91.35 16.5 89.65 16 87.8 15.65 85.95 15.25 85.85 14.55 85.95 14.15 86.1 13.9 86.1 13.7 86.1 13.55 86.1 13.2 85.95 12.8 85.85 12.45 85.85 12.2 85.85 12.1 86.1 11.85 86.35 11.7 86.35 11.5 86.1 9.15 84 9.15 82.05 9.15 81.8 8.8 82.45 8.05 83.05 7.35 83.75 6.6 83.75 5 83.75 4.5 83.4 4.4 83.05 4.3 82.8 4.3 82.45 4.3 82.2 4.3 81.95 4.3 81.8 4.3 81.55 4.3 81.45 4.15 81.2 4.05 81.1 4.05 80.85 4.05 80.7 4.05 L 80.6 4.05 Q 80 3.8 79.6 3.65 79.25 3.55 79 3.55 78.75 3.55 78.5 3.8 78.4 4.05 78.05 4.05 76.95 2.7 75.95 2.95 74.85 3.05 73.75 2.55 73.15 3.3 72.9 4.3 72.55 5.25 71.3 5.5 71.45 6.7 72.3 7.35 73.05 7.8 73.15 8.55 73.05 10 72.15 10.4 71.2 10.75 71.05 11.5 71.2 12.1 71.3 12.35 71.55 12.6 71.7 12.8 71.55 12.8 71.45 12.95 71.45 13.2 71.3 13.55 71.45 14.15 72.15 15.5 72.9 16.75 73.4 17.7 73.4 18.2 73.15 18.3 72.9 18.55 72.9 18.8 72.9 19.15 73.15 19.4 73.4 19.8 73.4 20.25 73.4 20.5 73.25 20.75 73.15 21.1 73.15 21.5 73.25 22.2 73.75 22.45 74.3482421875 22.69921875 74.35 23.1 74.346484375 22.948046875 73.9 22.7 73.5 22.6 73.4 22.45 L 73.25 22.7 Q 73.15 22.85 73.15 23.1 73.15 24.05 73.5 24.55 73.9 24.9 73.9 25.25 L 73.65 25.4 73.4 25.5 Q 73.65 27.1 74.15 29.3 74.6 31.5 74.6 31.75 L 74.85 31.15 Q 75 30.65 75.1 30.5 L 75.25 30.65 Q 75.25 30.75 75.35 31 75.25 31.5 74.85 31.85 74.6 32.1 74.35 32.45 75.1 32.45 75.1 33.2 75.1 33.35 75 33.55 74.85 33.8 74.85 34.3 L 74.85 34.55 Q 75.1 34.45 75.35 34.3 75.7 34.05 75.95 34.05 76.1 33.95 76.2 34.05 76.45 34.2 76.45 34.55 74.75 36 73.75 38.6 72.9 41.15 72.9 42.95 72.9 43.95 72.9 44.8 72.9 45.55 72.9 46.5 72.9 47 72.8 48.95 72.65 50.9 72.4 53.35 72.15 55.65 71.95 57.25 71.95 58.35 71.95 59.55 71.95 60.45 71.7 60.9 71.55 61.55 71.3 62 71.3 62.4 71.3 62.85 71.3 63.35 71.3 63.7 71.3 64.95 71.2 65.8 71.2 66.8 71.05 67.5 71.2 70.05 71.7 71.65 72.05 73.1 72.15 74 72.05 74.6 72.05 75.1 71.95 75.55 71.95 76.3 71.95 76.65 71.95 77.15 71.95 77.65 71.95 78 71.8 79.1 71.45 79.6 71.2 80.2 71.05 81.05 70.45 82.5 70.1 86.8 69.75 91.05 69.25 95.95 68.9 100.95 68.15 104.75 68.15 105 68.15 105.25 68.15 105.6 68.15 105.7 68 107.9 67.4 110 66.9 112.05 66.7 113.75 66.7 115.5 66.7 116.95 66.7 118.55 66.7 120 66.45 122.8 65.35 124.9 64.25 126.85 64.1 130 64.25 132.2 65.2 132.95 66.2 133.55 66.3 135.25 65.95 136.1 65.7 136.95 65.35 137.8 65.35 138.3 65.35 138.8 64.85 138.8 64.5 138.9 64.35 139.3 64.35 139.4 64.6 139.65 64.85 139.75 64.85 140 64.6 140.4 64.25 140.5 63.85 140.75 63.85 141.25 64 142.45 64.6 143.05 65.35 143.55 65.45 144.8 65.1 145.15 64.95 145.4 64.85 145.65 64.85 146 64.85 146.75 64.85 147.45 64.85 148.7 64.1 149.15 63.4 149.8 62.9 150.05 62.9 150.4 62.9 150.75 62.75 152 62.05 152.35 61.3 152.7 61.2 154.3 61.2 155.4 61.8 157.25 62.3 158.95 62.9 160.55 62.55 160.75 62.05 163.6 61.7 166.25 61.7 168.2 61.7 170.65 63.15 172.6 64.5 174.7 66.7 174.8 69.35 172.85 70 171.4 70.7 169.95 71.2 169.55 L 71.05 169.3 Q 70.95 169.2 70.95 169.05 70.95 168.85 71.05 168.7 71.2 168.6 71.2 168.45 72.65 162.35 73.25 156.15 73.9 149.9 73.9 145.25 74.35 145 75.25 143.2 76.1 141.35 76.2 140.5 76.1 139.55 76.1 138.55 75.9521484375 137.662890625 75.95 136.7 75.9578125 137.095703125 76.2 135.4 76.45 133.45 76.95 130.15 77.4 126.7 78.15 123.55 78.75 119.25 80 118.3 81.2 117.2 82.3 116.1 83.3 115 83.4 110.5 83.15 108.65 81.8 107.55 80.35 106.55 80.1 104.25 80.1 102.55 80.45 101.95 80.95 101.3 82.9 98.25 81.95 97.65 80.95 95.6 80 93.5 79.85 93 79.85 92.4 80 92.3 80.25 92.05 80.85 92.05 82.2 92.05 83.15 92.4 84.15 92.8 85.35 93 85.5 91.9 86.45 91.2 87.55 90.35 87.7 89.25 87.55 88.25 86.95 87.75 86.2 87.3 86.1 86.3 87.05 85.2 87.8 83.6 88.55 82.15 90.6 82.05 90.75 86.05 91.35 89.1 92.05 92.15 92.95 93.5 L 93.3 93.5 Q 93.4 93.65 93.4 93.75 93.4 94 93.4 94.1 L 93.4 94.25 Q 94.15 95.6 95.1 96.45 96.1 97.3 96.1 99.5 96.1 100.45 96 101.45 95.85 102.3 95.85 103.3 96 104.6 96.7 105.45 97.55 106.45 97.55 107.05 97.55 107.45 97.55 107.8 98.65 108.4 99.9 109 101.1 109.6 101.85 110.95 101.85 111.6 101.85 112.05 101.85 112.45 101.85 113.05 101.95 116.45 102.8 118.4 103.8 120.35 103.9 122.55 103.55 122.8 102.3 123.15 101.1 123.65 99.9 123.8 98.8 123.8 95.5 125.15 92.2 126.35 89.15 128.05 86.1 129.65 85.85 131 86.8 131.25 90.25 132.55 93.65 133.8 97.3 134.05 97.95 134.05 98.4 133.9 99.05 133.65 99.65 133.55 99.65 133.65 99.5 133.8 L 99.4 133.8 Q 99.4 133.9 99.5 134.15 99.65 134.3 99.9 134.3 100 134.3 100.35 134.15 100.59765625 133.90234375 100.6 133.8 L 100.6 134.05 Q 100.6 134.15 100.35 134.55 100.15 134.75 100.15 135 100.25 135.4 101.85 135.5 103.4 135.75 104.3 136.25 101.7 137.1 98.55 138.45 95.35 139.75 93.05 141.35 90.75 142.85 90.6 144.05 90.85 144.3 92.95 144.9 95 145.5 95.85 145.75 L 96 145.5 Q 96.1 145.25 96.35 145.25 96.7 145.25 96.85 145.65 97.1 146 97.55 146.25 97.95 146.25 98.15 146 98.3 145.75 98.9 145.75 99.15 145.9 99.4 146.25 99.5 146.75 100.15 146.75 100.15 146.35 100.25 146.35 100.35 146.25 100.6 146.25 101 146.25 101.35 146.25 101.85 146.25 101.7 146 101.6 145.75 102.1 145.75 102.45 145.75 102.8 145.75 104.05 145.25 105.25 144.8 106.5 144.3 107.55 143.8 108.05 146.1 109.15 148.45 110.15 150.65 111.85 150.75 111.95 150.75 112.35 150.65 112.6 150.5 112.8 150.5 112.6 151 112.95 151.15 113.2 151.25 113.55 151.25 114.15 151.25 114.65 151.15 115.15 151 115.5 151 115.85 151 116.25 151.15 116.5 151.35 116.5 151.5 116.85 150.5 117.7 150.4 118.7 150.15 118.8 148.55 118.7 146.6 117.95 144.9 117.35 143.05 116.95 141 119.15 140.85 122 140.4 124.8 139.9 127 138.9 129.2 138.05 129.3 136.5 129.3 136.35 129.3 136.1 129.2 136 129.05 135.75 129.05 136 128.95 136 L 128.55 136 Q 128.55 135.85 128.7 135.6 128.8 135.5 129.05 135.25 128.95 135.25 127.1 134.75 125.15 134.4 122.85 133.9 120.4 133.55 118.7 133.55 117.7 133.55 116.95 133.55 116.1 133.55 115.4 133.8 115 132.7 114.65 131.6 114.3 130.6 113.9 129.5 116.6 129.3 119.15 128.8 121.6 128.3 124.3 128.3 L 124.3 128.05 Q 124.3 127.95 124.3 127.8 124.4 127.1 124.9 126.95 125.5 126.95 125.65 126.2 125.65 126.1 125.65 126 L 125.65 125.75 Q 125.75 125.75 125.75 125.85 L 125.9 126 Q 126.35 126 126.35 125.35 126.5 124.9 126.6 124.75 126.75 124.75 127.1 124.9 127.35 125 127.6 125 L 127.6 124.75 Q 127.45 123.65 126.85 123.65 126.35 123.65 126.15 123.05 126.15 122.7 125.9 122.55 125.75 122.45 125.4 122.55 125.25 122.55 125.15 122.55 125.05 122.55 124.8 122.55 123.55 122.3 121.5 121.85 119.3 121.45 119.15 121 119.15 120.6 118.95 120.6 118.8 120.5 118.45 120.5 117.95 120.5 117.7 120.5 117.35 120.5 117.1 120.5 116.95 120.5 116.75 120.5 L 116.6 120.5 Q 117.2 119.15 117.7 117.55 118.05 115.95 118.05 114.75 118.2 114.85 118.8 112.55 119.55 110.35 120.15 109.5 L 120 109.4 Q 119.9 109.25 119.9 109 120 106.55 121.1 104.15 122.2 101.55 122.35 99.5 122.45 97.4 122.6 93.65 122.7 89.75 123.55 86.05 124.55 82.4 127.1 81.05 128.1 86.9 128.45 91.7 128.8 96.55 130.05 97.8 L 129.9 97.9 Q 129.8 98.15 129.8 98.5 130.05 100 132.25 100.85 134.3 101.8 134.55 104.75 134.55 106.1 134.45 107.45 134.3 108.9 134.3 110 134.3 110.95 134.3 111.8 134.45 112.8 134.8 113.55 134.9 114.5 134.8 115.6 134.65 116.6 134.65 117.8 134.8 123.05 135.75 127.7 136.85 132.35 137.1 133.05 137.1 135.85 137.85 137.35 138.6 138.9 138.7 139.3 138.7 140 138.7 140.75 138.7 141 138.8 141.25 138.95 141.5 139.2 141.5 140.8 150.75 141.65 159.9 142.35 169.05 142.35 175.3 142.35 176.05 142.1 176.5 141.9 177 141.9 177.5 142 178.1 142.85 178.35 143.7 178.45 144.45 178.45 144.8 178.45 145.15 178.45 145.3 179.45 145.65 180.2 146.05 181.05 147.1 181.05 147.5 181.05 147.85 181.05 148.45 181.05 148.95 181.3 149.55 181.5 150.2 181.5 150.9 181.4 151.25 180.8 151.65 180.05 151.65 179.8 151.65 179.1 151.75 178.25 151.9 177.25 151.9 176.75 151.75 175.4 151.4 174.45 150.9 173.35 150.9 172.25 150.9 170.8 150.9 169.3 150.8 168.6 150.4 166.25 149.95 163.8 149.45 161.5 148.95 159.3 148.85 159.05 148.85 158.8 148.95 158.55 149.1 158.2 149.1 157.95 148.6 155.4 148.2 153.7 147.85 152 147.35 149.8 147 147.7 146.5 143.8 146.65 143.55 146.75 142.35 146.75 141.25 145.05 135.75 145.3 134.55 145.9 133.3 146.5 132.2 146.5 130.75 146.5 130.15 146.5 129.5 146.5 128.8 146.5 128.3 146.65 126.6 147 125.5 147.5 124.4 147.5 123.55 147.5 121.85 147.25 120.1 147.1 118.4 147 116.85 147 115.85 147 115 147 114.15 147 113.3 147 110 146.4 108.4 145.9 106.8 145.8 106.2 145.8 105.7 145.9 105.25 146.05 104.6 146.05 104.25 145.9 100.95 145.15 96.95 144.45 92.8 144.3 88.75 144.3 87.3 144.45 86.05 144.55 84.85 144.55 83.5 144.55 82.5 144.55 81.55 144.55 80.45 144.55 79.45 145.05 77.75 145.15 75.45 145.3 73 145.3 70.55 145.3 67.25 145.15 64.2 144.95 61.15 144.55 59.2 144.2 56.15 144.05 52.5 143.85 48.95 142.85 46.75 141.65 42.1 140.65 40.15 139.55 38.1 139.55 35.55 139.55 33.2 140.55 31.6 141.5 30.05 142.6 27.95 143.7 25.75 144.3 22 M 210.5 40.55 Q 210.15 38.6 209.9 36.85 209.15 34.8 208.55 34.05 207.95 33.2 206.7 32 205.5 30.75 203.05 27.6 201 27.1 198.65 26.75 196.35 26.25 195.1 24.9 194.65 24.9 194.25 24.9 191.85 24.8 189.5 24.05 187.05 23.45 184.85 23.3 184.6 23.3 184.6 23.45 184.5 23.55 184.4 23.55 184.15 23.55 184 23.45 183.75 23.3 183.65 23.3 183.3 23.3 182.8 23.3 180.6 23.2 178.3 22.35 175.85 21.5 175.6 21.6 174.75 22.35 173.4 22.6 172.15 22.85 170.85 22.85 170 22.85 168.9 22.85 167.9 22.85 166.9 22.85 166.3 22.85 165.95 22.85 165.45 22.85 165.1 22.85 164.25 23.1 162.65 23.7 160.95 24.3 159.5 25.15 158 26 157.9 26.85 157.75 27.7 157.3 27.7 156.65 27.6 156.65 28.1 157.05 28.45 157.5 28.8 158 29.2 158.4 29.55 158.5 32 159.6 32.85 160.7 33.7 161.9 34.3 163.15 34.9 163.65 36.85 163.15 38.2 162.05 39.2 161.05 40.15 160.95 42.1 161.45 43.35 163.25 43.85 164.95 44.3 165.1 45.3 165.1 45.9 164.75 46.4 164.5 46.75 164.35 47.35 164.35 47.5 164.5 47.75 164.6 47.85 164.6 48.1 163.75 48.1 162.9 48.2 162.15 48.2 161.65 48.6 161.65 48.7 161.65 48.85 161.65 48.95 161.65 49.1 161.55 49.8 161.05 49.8 160.45 49.95 160.35 50.55 160.6 51.15 162.3 51.75 163.85 52.25 164.6 52.85 164.25 53.1 164.1 53.35 163.85 53.7 163.85 54.1 164 54.7 164.25 55.3 164.6 56.05 164.6 56.65 164.6 56.9 164.1 57.15 163.75 57.4 163.65 58.1 163.65 58.35 163.4 59.95 163.25 61.55 162.9 63.35 162.55 65.05 162.15 65.8 162.15 66.15 162.15 66.65 162.15 67 162.05 67.15 162.05 67.4 161.65 67.65 161.65 68 161.65 68.35 161.55 69.85 161.45 70.55 161.2 71.4 161.2 72.15 161.2 72.5 161.3 72.75 161.45 73.1 161.45 73.35 161.05 75.1 160.8 76.8 160.7 78.6 160.7 80.1 160.7 82.75 160.95 84.7 161.2 86.65 161.45 87.65 161.45 88 161.45 88.25 161.45 88.65 161.45 88.85 161.45 89.25 161.55 89.5 161.65 89.75 161.65 89.85 161.65 90.2 161.65 90.6 161.8 90.6 161.9 90.6 L 162.15 90.6 Q 162.15 90.7 162.15 90.8 162.15 91.05 162.15 91.2 L 162.15 91.3 Q 162.65 92.4 162.9 93.25 163.15 94.1 163.15 95.35 163 98.75 162.3 100.45 161.55 102.3 161.45 105.1 161.45 105.6 161.55 106.2 161.65 106.8 161.65 107.55 161.65 108.5 161.55 109 161.45 109.5 161.45 109.85 161.45 110 161.55 110.25 161.65 110.35 161.65 110.6 161.65 110.7 161.65 110.85 162.4 112.45 162.55 113.15 162.65 113.9 162.65 114.4 162.65 114.75 162.65 115.1 162.65 115.35 162.65 115.6 163.25 118.3 164 119.65 164.6 121.1 165.1 122.3 165.6 123.65 165.6 126.1 165.6 128.05 164.1 128.2 162.75 128.4 161.45 128.4 159.95 128.4 159.85 129.9 159.85 130 159.95 130.25 160.1 130.4 160.1 130.6 159.95 130.75 159.1 131.25 158.15 131.7 157.9 132.35 160.6 132.8 163.25 133.3 165.8 133.65 167.55 135.15 169.35 136.7 169.35 140.65 169.35 141.1 169.25 141.75 169.1 142.35 168.9 142.85 169.5 143.55 169.85 144.4 170.2 145.15 170.35 146.1 170.35 147.2 170.1 148.3 170 149.55 169.85 150.9 170 151.6 170.1 152.6 170.35 153.55 170.35 154.3 170.35 155.5 169.6 158.1 169 160.75 168.9 162.85 L 169.1 162.95 Q 169.35 162.95 169.35 163.35 169.35 163.45 169.1 163.45 168.9 163.45 168.9 163.6 169 165.8 170.95 166.5 172.9 167.35 175.1 167.6 176.1 167.25 176.45 166.4 176.95 165.65 177.4 165.05 177.8 165.55 178.05 165.65 178.15 165.9 178.4 165.9 178.75 165.8 179.35 165.55 180 165.15 180.85 165.05 181.55 165.15 182.3 165.4 183.05 165.55 184.4 165.65 185.5 165.55 186.45 165.4 187.45 165.3 187.8 165.05 188.05 165.15 188.3 165.15 188.55 165.25 188.7 165.35 188.75 165.15 190.1 164.45 191.95 163.45 198.3 161.4 199.05 161.25 199.75 159.65 200.6 158.1 205 156.6 205.85 156.6 206.35 156.15 206.85 155.75 206.85 155.65 206.95 155.65 207.2 155.75 207.35 155.9 207.55 155.9 207.7 155.9 207.8 155.75 207.8 155.65 207.8 155.15 208.05 155.15 208.2 155.3 208.25 155.15 208.8 154.9 210 154.4 211.5 152.95 212.95 151.6 213.05 148.55 213.05 147.85 212.8 147.35 212.6 146.85 212.1 146.1 212.6 145.5 212.95 145.15 213.3 144.65 213.3 144.05 213.3 143.7 213.3 143.45 213.2 143.2 213.05 142.85 213.45 142.7 213.8 142.35 214.05 141.95 214.05 141.35 214.3 141.35 214.55 141.5 214.9 141.6 215 141.6 215.65 141.6 216 141.35 216.35 141.1 216.35 140.4 216.1 140.4 216 140.5 L 215.85 140.65 Q 215.65 140.65 215.5 140.4 215.25 140.25 215.25 140.15 215.25 139.9 215.5 139.65 215.65 139.3 215.85 139.05 216 139.3 216.25 139.3 216.35 139.4 216.6 139.4 216.95 139.3 217.2 139.15 217.45 139.15 217.85 139.05 218.3 139.15 219.05 139.4 219.65 139.55 220.75 139.65 221.1 139.55 222 138.45 222.95 137.35 223.1 136.85 222.85 136 221.1 136 219.4 135.85 218.8 135.15 219.15 134.65 219.3 133.9 219.4 133.3 219.8 132.8 222.35 132.95 224.3 131.95 226.25 131 226.35 127.55 226.15 125.6 224.9 125.75 223.7 125.85 223.55 124.9 224.55 123.8 225.5 122.8 226.6 121.7 226.85 120.1 226.5 119.9 225.65 119.15 224.65 118.4 224.55 118.05 224.65 114.4 225.65 111.95 226.6 109.5 226.85 106.1 226.6 102.2 224.55 101.55 222.35 100.85 220.15 100.45 217.95 100 217.85 96.8 217.85 96.7 217.85 96.45 217.85 96.2 217.85 95.85 216.25 94.35 215 94.25 213.7 94.1 211.6 93.4 211.6 92.55 209.9 92.15 208.3 91.8 207.35 90.1 207.35 89.6 207.55 89.1 207.8 88.65 207.8 88.15 207.7 86.8 206.25 86.55 204.75 86.45 203.05 86.3 201.45 86.3 200.85 85.35 202.3 83.25 203.65 82.05 205 80.8 206.7 79 208.45 77.25 211.1 73.35 L 212.1 72.4 Q 213.2 71.15 214.55 68.85 215.75 66.65 215.85 63.6 215.85 63.25 215.85 62.85 216.35 61.3 216.6 59.45 216.85 57.6 216.85 55.55 216.75 51.75 215.15 50.65 213.55 49.55 211.6 47.6 211.6 47.25 211.6 46.9 211.6 46.15 211.7 45.3 211.95 44.55 212.1 43.85 210.85 42.5 210.5 40.55 M 179.35 35.05 Q 179.6 34.05 181.2 32.7 182.8 31.4 183.65 28.1 183.75 28.1 184.15 28.1 184.4 28.1 184.6 28.1 185.35 28.1 186.1 28.1 186.7 28.1 187.3 28.1 188.4 28.2 190.75 29.2 192.9 30.3 194 31.15 194.75 32.35 195.5 33.7 196.1 35.05 196.85 36.4 197.7 37.5 198.65 38.35 199.65 39.2 200.85 40.05 200.6 41 200.25 41.75 199.9 42.5 199.75 43.35 200.6 45.05 201.45 46.65 202.45 48.2 203.55 49.55 203.55 50.3 203.55 51.15 203.55 52.6 203.65 53.95 203.8 55.3 203.8 56.65 203.8 57.75 203.65 59.2 203.4 60.65 203.05 61.9 203.05 62 202.8 62.15 202.55 62.15 202.55 62.4 202.55 62.5 202.55 62.85 202.55 63.246875 202.55 63.6 202.5458984375 63.3650390625 202.2 64.6 201.85 65.8 201.1 67.15 201.1 67.5 201.1 67.9 201.1 68 201 68.25 200.85 68.35 200.85 68.6 200.85 68.75 200.85 68.85 200.85 68.95 200.85 69.1 200.75 69.95 200.15 70.95 199.5 71.9 199.25 72.4 199.15 72.5 199.05 72.5 198.8 72.5 198.8 72.9 198.65 75.45 195.75 77.25 192.8 79 189.85 82.4 188.4 81.8 186.35 81.55 184.25 81.3 182.05 81.3 181.45 81.45 181.45 81.8 181.35 82.3 180.85 82.4 180.95 82.3 179.85 81.3 178.75 80.2 177.9 79.6 177.9 79.35 177.9 79.1 177.9 78.85 177.9 78.6 177.9 77.25 177.55 76.2 177.3 75.1 176.95 74.35 177.2 73.25 178.15 72.75 179.25 72.25 179.85 71.65 179.85 71.4 179.75 71.15 179.6 71.05 179.6 70.8 179.75 70.8 180.25 69.85 180.85 68.85 180.85 67.15 180.6 65.9 178.75 64.6 176.95 63.25 176.7 59.35 176.55 59.2 176.7 58.85 176.7 58.5 176.95 58.1 L 176.95 57.85 Q 177.2 57.6 178.9 56.65 180.6 55.65 180.85 52.6 180.85 50.05 180.1 49.8 179.5 49.45 178.9 48.6 L 178.9 48.45 Q 178.9 48.35 178.9 48.1 178.75 47.1 178.4 46 177.9 44.95 177.9 43.85 177.9 43.1 178.4 42.5 178.75 41.85 178.9 40.65 178.9 40.4 178.9 40.05 178.9 39.8 178.9 39.55 178.9 39.05 179.15 38.7 179.35 38.45 179.35 37.35 179.35 35.9 179.35 35.05 M 177.55 98.75 Q 176.3 98.05 176.1 97.55 176.2 93.25 178.65 90.95 181.1 88.65 185.1 88.65 185.5 88.65 185.7 88.65 185.95 88.65 186.35 88.65 186.1 88.5 189.25 89.6 192.45 90.6 195.85 91.9 199.4 93.15 200.35 93.9 L 200.6 93.9 Q 201.1 93.9 201.35 94.25 201.6 94.5 201.6 95.1 201.6 95.45 201.6 95.85 202.7 96.3 203.9 97.15 205.15 98.05 206.35 98.65 206.7 98.65 207.1 98.65 207.2 98.65 207.35 98.65 209.15 100.95 210 105.35 210.85 109.75 210.85 113.4 210.75 114.15 210.6 114.4 210.4 114.65 210.25 114.65 210.4 114.75 210.4 114.85 210.5 114.85 210.6 115.1 210.5 115.1 210.25 115.75 210.15 116.35 210 117.05 210.15 118.05 210.15 118.9 210.25 119.65 210.25 120.6 209.9 121.35 209.75 122.45 209.55 123.55 209.55 124.4 209.55 125.25 209.65 126.1 209.75 126.85 209.75 127.55 209.4 129.05 209.05 131 208.55 132.95 207.8 133.8 207.8 134.9 208.3 135.25 208.8 135.75 208.8 136.6 208.8 138.05 208.2 138.8 207.55 139.55 207.35 140.4 206.95 142.6 206.45 143.2 206.1 143.8 203.8 145.5 201.6 147.2 195.85 152.85 195.5 153.2 192.7 154.8 189.85 156.4 185.95 157.95 182.05 159.45 178.4 159.55 178.4 156.4 177.9 153.95 177.3 151.5 176.45 148.1 176.45 147.95 176.45 147.6 176.45 147.35 176.45 147.1 176.3 146.75 176.3 146.25 176.2 145.9 176.1 145.15 176.2 143.55 176.3 142.2 176.3 140.85 176.45 139.65 176.45 138.3 176.45 136.85 176.45 135.4 176.45 133.8 176.8 133.65 176.95 133.65 177.2 133.55 177.4 133.55 178.05 133.65 179.75 134.15 181.55 134.55 183.65 134.65 189.65 134.4 192.3 131.6 194.9 128.9 195.85 126.6 197.7 125.75 199.75 123.4 201.7 121.2 201.85 119.4 201.95 119.75 202.1 117.2 202.2 114.75 201 112.05 199.65 109.4 195.6 109.15 195.25 109.15 194.75 109.15 194.25 109.15 193.65 109.15 193.65 109 193.55 108.9 193.55 108.65 193.15 108.65 192.55 108.4 191.2 108.4 190 108.4 188.9 110.6 187.7 112.8 187.7 119.4 187.7 121.45 188.15 121.6 188.55 121.85 188.65 122.3 188.4 124.5 184.85 126.45 181.45 128.4 176.95 128.55 176.7 127.8 176.45 127.1 176.2 126.35 176.1 125.6 176.3 123.8 177.2 121.6 178.05 119.4 178.15 116.6 178.05 114.65 177.3 112.9 176.45 111.2 176.45 109.6 176.7 108.05 177.3 107.3 177.8 106.7 178.4 105.45 178.9 104.35 178.9 101.55 178.75 99.5 177.55 98.75 M 292.05 19.8 Q 291.15 18.7 290.3 18.4 290.5 18.4 289.1 17.6 287.25 16.5 284.2 15.15 281.3 13.9 279.35 13.8 278.25 13.8 277.15 13.8 276.15 13.7 275.65 13.45 275.2 13.05 274.55 13.05 274.45 13.05 274.1 13.05 273.85 13.05 273.6 13.05 273.25 12.95 273.25 12.7 273.1 12.6 273.1 12.45 269.2 11.95 263.7 11.85 258.2 11.7 253.35 11.5 248.45 11.35 246.4 10.5 246.25 11 245.15 11.35 243.95 11.6 242.1 12.45 242.85 11.95 239.9 13.05 236.85 14.15 233.7 15.75 230.4 17.35 230 18.05 230.15 18.2 230.25 18.3 L 230.4 18.55 Q 230 19.15 229.3 19.3 228.55 19.4 228.3 20 229.05 20.9 231.95 21.5 234.9 22 237.35 22.45 239.55 22.6 240.25 25.4 241 28.2 241.15 32.1 241.35 36 242.1 39.55 242.7 41.4 243.1 43.1 243.55 44.95 243.55 46.75 243.55 48.7 243.3 50.65 243.1 52.6 243.1 54.35 243.1 55.9 243.2 57.4 243.3 58.7 243.3 60.05 243.3 60.65 243.3 61.65 243.2 62.65 242.85 62.75 242.7 62.75 242.45 62.65 242.25 62.5 241.85 62.5 241.75 62.5 241.15 62.85 L 240.4 63.25 240.4 63.5 Q 240.4 63.6 240.4 63.7 240.25 64.45 239.9 64.7 239.4 64.95 238.8 65.3 238.8 68.35 238.3 71.05 237.95 73.6 237.85 76.8 238.1 77.5 238.8 77.9 239.55 78.15 240.4 78.5 240.5 78.75 240.75 79.1 241 79.45 241.35 79.45 241.75 79.45 242.1 79.45 L 242.1 79.7 Q 242.1 79.85 242.1 79.95 242.1 80.2 242.1 80.55 242.1 80.8 242.1 81.05 242.1 81.2 242.1 81.3 L 242.1 81.55 Q 242.1 81.8 242.1 82.05 242 82.3 241.85 82.3 L 241.6 82.3 Q 241.50078125 82.3 241.35 82.3 241.5921875 82.3056640625 240.05 83.4 238.3 84.5 238.1 86.05 L 238.2 86.2 Q 238.3 86.3 238.3 86.55 238.3 86.65 238.1 86.8 237.85 86.8 237.85 87.55 237.95 89.95 239.15 91.8 240.4 93.75 241.75 95.45 242.95 97.15 243.1 99.25 243.1 99.85 243.1 100.2 243.1 100.7 243.1 101.1 243.7 102.3 244.2 104 244.8 105.6 244.8 107.55 244.8 109 244.4 110.7 244.2 112.3 244.05 114 244.05 116.6 244.3 119.15 244.55 121.7 244.55 123.3 244.55 124.65 244.3 125.85 244.05 127.2 244.05 128.55 244.05 129.5 244.3 131.95 244.55 134.3 244.55 134.75 244.55 135.15 244.4 136 244.3 136.85 244.3 137.8 244.4 139.3 244.55 140.85 244.8 142.45 244.8 144.05 244.8 144.65 244.65 145.15 244.55 145.65 244.55 146 245.05 147.1 245.4 148.1 245.9 149.05 246.15 150.5 246 152.1 245.75 153.7 245.4 155.3 245.3 156.75 245.3 157.6 245.5 158.2 245.75 158.95 246.4 159.55 246 160.05 245.75 160.9 245.65 161.65 245.65 162.85 245.65 164.2 247 164.2 248.35 164.2 249.3 164.8 249.3 164.55 249.55 164.55 249.65 164.55 249.8 164.55 250.3 164.55 250.9 164.8 251.5 165.05 252.1 165.05 252.85 164.9 253.45 163.8 254.05 162.6 254.05 161.75 254.05 161.25 253.95 160.65 253.8 160.05 253.6 159.55 254.3 158.7 254.45 157.45 254.7 156.25 254.55 155.05 254.55 153.95 254.55 152.7 254.55 151.35 254.55 150.25 254.7 148.2 254.8 146.1 255.05 144.05 255.05 141.75 255.05 138.55 254.9 135.4 254.8 132.2 254.8 129.05 254.9 125.25 255.3 121.6 255.8 117.8 255.9 114 255.8 111.6 255.8 109.25 255.65 107.05 255.55 104.75 255.65 102.2 256.25 100.6 256.75 99.15 256.85 96.3 256.85 94.95 256.85 93.5 256.85 92.15 256.85 91.05 256.85 90.45 257.1 90.1 257.35 89.85 257.35 89.25 257.35 88.75 257.25 88.25 257.1 87.9 257.1 87.55 257.1 87.3 257.25 87.15 257.5 87.05 257.85 87.05 L 258.1 87.3 Q 258.35 87.3 258.45 87.15 258.7 87.05 258.85 87.05 260.15 88.65 261 90.8 261.75 92.9 265.65 96.8 266.75 100 267.6 103.5 268.45 107.05 269.35 110.5 268.95 110.6 266.9 111.8 264.8 113.05 263.6 114.75 263.2 114.75 262.85 114.75 L 262.6 114.75 Q 262.85 115.85 261.9 116.6 261 117.2 260.9 117.55 L 261.65 117.55 Q 261.4 117.7 261.4 117.9 261.4 118.05 261.4 118.3 261.5 118.9 263.95 119.25 266.4 119.75 269.2 120.1 272 120.5 273.1 121 L 273.1 121.2 Q 273.1 121.35 273.1 121.6 273.1 122.2 273.35 122.7 273.6 123.05 273.6 123.8 273.6 123.9 273.6 124.05 273.6 124.15 273.6 124.25 274.2 124.9 274.8 125.5 275.45 126.1 275.65 126.45 275.65 127.55 276.3 128.65 276.75 129.9 276.9 129.75 276.9 130.15 276.9 130.5 L 277.15 130.5 Q 277.25 130.5 277.4 130.6 L 277.4 130.75 Q 277.4 131 277.4 131.1 L 277.4 131.25 Q 277.4 131.6 277.85 131.7 278.35 131.85 278.35 132.1 278.35 132.2 278.35 132.35 L 278.35 132.55 Q 278.6 133.3 280.2 134.75 281.9 136.25 282.15 136.5 282.15 136.85 282.15 137.35 282.25 139.4 283.35 140.25 284.6 141.1 285.8 141.35 287.05 141.6 287.15 141.5 287.25 141.5 287.65 141.35 288 141.25 288.35 141.25 288.75 141.5 289 141.5 289.2 141.5 289.35 141.5 291.55 141.35 291.4 138.7 291.2 136.1 290.1 133.05 288.85 130 287.9 128.55 L 287.75 128.55 Q 287.65 128.4 287.65 128.3 287.65 128.05 287.75 127.95 287.9 127.7 287.9 127.55 286.65 125.6 285.45 121.6 284.2 117.45 283.6 113.3 284.2 112.45 285.45 111.35 286.65 110.1 288.1 110 288.75 110.1 289.1 110.25 289.45 110.5 289.85 110.5 290.8 110.35 292.05 108.4 293.15 106.55 294.1 105.7 294 105.6 293.75 105.45 293.6 105.25 293.35 105.25 292.75 105.35 292.25 105.45 291.65 105.7 290.95 105.7 291.2 105.7 288.75 104.85 286.3 104.15 284.1 104 283.25 104.15 282.65 104.5 282.15 105 281.65 105 L 281.4 105 Q 281.3 105 281.15 104.75 280.9 104.35 280.9 104 280.9 103.65 280.9 103.3 280.9 102.55 281.05 101.8 281.15 101.1 281.15 100.2 281.05 100 280.7 98.05 280.2 95.95 280.05 94.95 280.05 95.1 279.95 95.1 279.8 95.2 279.6 95.2 279.45 95.35 279.45 95.2 279.35 95.2 279.35 94.95 279.35 94.85 279.6 94.6 279.7 94.25 279.8 94.25 279.35 92.9 278.85 91.3 278.35 89.75 276.9 88.5 277.25 88.5 277.5 88.5 277.7 88.45 277.8 88.25 277.75 88.2 277.65 87.75 277.4 86.8 277 85.6 276.65 84.35 276.4 84.25 276.05 84.25 275.65 84.25 L 275.55 84.25 Q 275.45 84.25 275.3 84 275.45 83.85 275.55 83.6 275.55 83.5 275.65 83.25 275.3 82.5 275.05 81.65 274.95 80.8 274.55 79.95 274.95 78.85 275.55 78.15 276.3 77.4 276.4 76.05 276.3 75.1 275.8 74.2 275.3 73.35 275.05 72.75 274.95 72.75 274.7 72.9 274.55 73 274.35 73 273.6 73 272.85 72.05 272.15 71.05 272.15 70.05 272.4 67.25 275.55 64.7 278.85 62 282.65 58 283 58.25 283.35 58.25 283.75 58.25 283.85 58.25 284.35 58.25 286.15 57.6 288 56.9 289.85 55.65 291.55 54.45 291.65 52.75 291.65 52.6 291.65 52.5 L 291.9 52.5 Q 292.05 52.5 292.65 51.5 293.15 50.55 294.1 49.55 294.1 49.3 294 49.2 293.95 49.1 293.9 49 294.1 49.2 294.85 47.6 295.8 45.55 297.9 43.2 297.9 43.1 297.75 42.85 297.75 42.5 297.9 42.5 298 42.5 298.25 42.5 L 298.4 42.5 Q 298.4 41.65 298.4 41.15 298.4 40.65 298.4 40.05 298.4 38.1 298.4 36.25 298.4 35.55 298.4 34.65 298.5 33.8 298.85 32.95 299.35 32.95 297.75 32 296.2 31 295.8 29.8 295.8 29.55 295.8 29.2 295.8 28.95 295.8 28.55 295.8 27.35 295.35 26.25 294.95 25.15 294.85 24.8 L 294.95 24.65 Q 295.1 24.4 295.1 24.3 294.95 23.95 294.85 23.95 294.6 23.95 294.6 23.8 L 294 22.6 Q 293.15 21.25 292.05 19.8 M 265.9 20.5 Q 268.25 20.5 269.95 20.15 271.65 19.8 273.6 19.8 274.35 19.8 274.7 20 274.95 20.25 275.9 21 276.3 21 276.65 21 276.9 21.1 277.85 21.75 278.75 22.45 278.85 22.45 L 278.75 22.7 Q 278.6 22.85 278.6 23.3 278.85 23.3 280.45 25.65 281.9 27.85 282.15 29.3 282.15 30.4 282.15 31.5 282.4 32.6 282.75 33.7 283.1 34.8 283.1 35.75 282.75 39.05 280.7 42 278.6 44.95 276.4 47.35 274.2 49.95 273.6 51.75 L 273.6 52 Q 271.75 52.85 270.65 54.35 269.45 55.65 268.35 57.25 267.6 57.25 266.9 57.25 263.85 57.4 262.25 58.25 260.65 59.1 259.2 60.05 257.85 60.9 255.55 61.05 255.8 58.35 256.15 55.3 256.5 52.25 256.65 49.3 256.65 48 256.4 45.9 256.15 43.85 255.8 42.25 255.55 40.65 255.05 40.55 255.3 40.3 255.3 39.9 255.4 39.55 255.55 39.05 L 255.4 38.8 Q 255.4 38.7 255.3 38.45 255.4 37.95 256.15 37.5 256.75 37 256.85 35.75 256.85 35.65 256.85 35.55 256.85 35.4 256.85 35.3 257 35.4 257.25 35.55 257.5 35.55 257.85 35.55 258.85 35.4 259.55 34.45 260.3 33.55 260.9 32.45 260.8 32 260.55 31.75 260.3 31.5 259.8 31.5 258.6 31.5 258.35 31.5 257.95 31.4 257.35 31 257.35 29.8 257.6 28.7 257.85 27.6 257.85 26.25 257.85 25.5 257.85 24.8 258.85 24.8 259.55 25.05 260.4 25.25 261.4 25.25 263 25.25 264.3 23.95 265.8 22.6 265.9 20.5 M 325.9 1.2 L 325.8 1.2 Q 323.6 1 321.65 0.5 319.55 0.15 317.35 0 316.4 0.35 315.8 1.2 315.05 2.1 314.8 3.3 314.95 3.65 315.4 6.7 316.05 9.65 316.75 12.6 317.5 15.5 317.85 16 317.85 16.25 317.75 16.35 317.6 16.6 317.6 16.75 317.75 18.05 318.7 19.55 319.8 21 320.05 21.75 319.55 22.35 319.7 23.45 319.7 24.55 319.55 25.5 320.05 26.6 321.3 27.45 322.5 28.2 322.6 30.3 322.5 31.15 321.5 32.7 320.4 34.3 319.1 35.05 319.1 35.4 319.1 35.75 L 319.1 36 Q 317.35 37.6 316.9 42.95 316.5 48.35 316.05 54.7 315.65 61.15 313.85 66.05 313.1 68.95 312.75 71.55 312.35 74.1 312.35 76.55 312.25 78.25 312.25 80.95 312.25 83.6 313.1 84.95 313.1 85.35 312.85 85.45 312.6 85.7 312.6 86.05 312.6 86.9 312.6 87.3 312.6 87.65 312.6 87.75 312.6 89.1 312.35 90.35 312.1 91.7 312.1 93 312.1 94.85 312.25 96.95 312.35 98.9 312.6 100.7 310.3 101.7 307.75 101.95 305.05 102.3 302.6 103.05 302.6 103.5 302.6 103.65 302.6 103.75 302.35 103.75 302.25 103.75 302 103.65 301.85 103.5 301.6 103.5 299.3 104.35 297.35 105.45 295.5 106.55 294.9 108.3 296.25 109 298.45 109.75 300.5 110.5 302.35 110.95 304.2 111.45 304.45 111.45 304.55 111.45 304.65 111.35 L 304.9 111.2 Q 304.65 111.6 304.65 111.8 304.65 112.05 304.65 112.3 304.8 114 306.15 114.75 307.5 115.35 307.6 116.7 307.6 117.2 307.5 117.55 307.35 117.9 307.35 118.3 307.35 118.65 307.5 118.9 307.75 119 307.85 119.25 307.6 120.35 306.75 120.85 306 121.45 305.9 122.55 307.5 123.8 308.95 124.65 310.55 125.6 310.65 128.8 310.65 130.25 310.3 131.85 310.05 133.45 309.05 136 L 309.05 136.25 Q 309.05 136.85 308.8 136.95 308.6 137.1 308.35 137.2 308.95 137.35 309.3 137.6 309.55 137.8 309.7 138.3 308.35 139.65 308.1 142.35 307.85 145 307.85 147.45 307.85 148.7 307.95 149.8 308.1 150.9 308.1 152 308.1 156.25 307.25 158.7 306.4 161 305.4 162.95 306 163.6 306.85 163.7 307.75 163.95 308.35 164.55 308.45 165.9 308.95 166.75 309.45 167.75 310.9 167.75 312.1 167.6 312.5 166.65 312.85 165.65 313.35 165.55 313.6 165.55 313.7 165.55 L 313.85 165.55 Q 315.4 164.05 315.9 164.3 316.5 164.45 316.65 164.45 316.75 164.3 317 162.1 317.25 159.8 318.35 153.55 318.35 152.7 318.2 152 318.1 151.25 318.1 150.25 318.1 148.95 318.35 147.85 318.45 146.6 318.85 145.5 318.85 144.8 318.6 144.4 318.45 143.95 318.35 143.8 318.45 143.45 318.6 143.3 318.85 143.05 318.85 142.7 318.85 142.35 318.85 141.75 318.85 141.1 318.85 140.75 318.85 140.5 318.85 140.4 L 318.85 140.25 Q 318.85 139.05 319.1 135.4 319.3 131.85 319.7 128.05 320.2 124.15 320.65 122.55 321.05 121.2 321.3 119.15 321.65 117.05 321.65 115.95 321.5 115.5 321.3 115.5 320.9 115.5 320.9 115 320.9 113.3 321.3 111.8 321.5 110.25 321.65 108.75 321.65 108.4 321.65 108.15 321.65 107.9 321.65 107.55 323.1 106.7 325.3 105.7 327.5 104.75 328.35 104 L 328.5 104.15 Q 328.7 104.25 328.85 104.25 328.45 104.2 331.3 103.4 334.2 102.4 337.9 100.7 338.1 101.8 338.35 102.3 338.6 102.8 338.6 103.05 338.6 103.4 338.6 103.65 L 338.6 104 Q 339.2 105.1 339.35 105.6 339.45 106.1 339.35 107.05 339.45 108.75 339.95 109.25 340.55 109.75 340.7 110.25 340.7 110.5 340.7 110.85 340.7 111.1 340.7 111.45 340.7 111.6 341.8 112.9 342.9 114.25 343.85 116.45 343.75 117.7 342.9 118.15 342.05 118.65 341.9 119.5 341.9 119.9 342.05 120.25 342.15 120.6 342.15 120.75 L 342.15 121 Q 342.15 121.1 342.15 121.2 342.15 122.95 342.9 125.85 343.6 128.65 344.45 131.45 345.3 134.3 345.95 136 345.3 135.75 346.2 136.25 347.05 136.7 348 137.95 349 139.15 349.1 141 349.1 141.35 349.1 141.75 349.35 142.1 349.45 142.7 349.6 143.2 349.6 143.8 349.35 144.3 346.8 145.25 344.1 146.25 342.15 146.5 341.55 146.5 341.05 146.5 340.55 146.5 340.05 146.5 339.6 146.5 339.2 146.6 338.85 146.6 338.6 147 L 338.5 147 Q 338.35 147 338.1 147 336.15 147.1 334.6 148.3 333 149.55 332 150.75 331.2 151.7 331.15 151.95 331.15 151.85 331.05 151.75 L 330.9 151.75 330.8 152 Q 330.7 152.1 330.7 152.45 332.85 153.3 335.45 154.05 337.9 154.65 340.45 154.8 341.8 154.8 342.9 154.4 343.85 154.05 344.85 152.95 345.1 153.1 345.2 153.1 345.45 153.2 345.7 153.2 346.2 153.1 347.75 151.75 349.35 150.4 351.65 150.25 352.3 150.5 353.25 154.05 354.35 157.6 355.45 161.25 356.45 164.9 357.4 165.55 L 357.3 165.65 Q 357.15 165.9 357.15 166.25 L 357.4 166.5 357.9 166.5 357.75 166.65 Q 357.65 166.85 357.65 167 357.9 168.35 359.75 169.05 361.7 169.95 362.65 170.3 L 362.4 170.55 362.55 170.65 362.65 170.8 362.8 170.8 Q 362.9 170.8 363.15 170.8 363.5 170.8 363.9 170.9 364.25 171 364.35 171.25 364.6 170.9 365.1 170.55 L 365.6 170.3 Q 366.2 170.3 366.45 170.55 366.7 170.8 367.4 170.8 367.4 170.15 367.55 169.55 367.65 168.85 367.65 168.2 367.3 162.1 364.85 157 362.55 152 361.7 146 363.15 146 364.5 146.25 365.95 146.5 367.4 146.5 368.5 146.5 369.5 145.25 370.35 144.15 371.1 143.05 370.95 143.05 370.85 143.05 L 370.6 143.05 Q 370.1 143.05 369.6 143.3 369.25 143.45 368.9 143.55 L 368.75 143.3 Q 368.65 143.2 368.65 143.05 367.05 142.2 364.6 142.1 362.3 142.1 360.1 141.75 358.5 138.05 357.05 133.3 355.7 128.4 354.7 124.15 353.85 119.75 353.85 117.8 353.25 117.2 352.55 116.85 351.9 116.45 351.65 115.5 351.65 113.75 351.9 112.3 352.05 110.7 352.15 109.25 351.8 107.05 351.05 104 350.45 100.95 349.6 98.75 351.2 98.05 353.25 97.9 355.45 97.8 357.4 97.55 358 97.15 359 95.45 359.95 93.75 360.6 93 360.45 93 360.35 92.9 L 360.1 92.8 Q 359.6 92.8 359 93 358.4 93.25 357.9 93.25 355.45 93.15 354.6 92.55 353.85 91.8 351.65 91.8 350.95 91.8 350.2 92.05 349.6 92.3 348.6 92.3 348.4 91.9 346.9 87.3 345.45 82.5 344 77.05 342.5 71.4 342.4 68.5 342.4 68.1 342.5 67.9 L 342.65 67.5 Q 342.5 65.9 341.05 62.65 339.7 59.2 338.5 56.4 337.25 53.6 337.65 53.45 337.65 53.1 337.75 53 L 337.9 52.75 337.4 52.75 Q 336.8 52.15 335.9 49.2 335.2 46.25 334.6 43.45 333.95 40.65 333.85 40.3 333.85 40.15 332.65 37.1 331.3 34.05 331.15 29.55 331.15 28.95 331.15 28.2 331.15 27.6 331.15 27 331.05 26.25 330.9 25.75 330.7 25.25 330.7 24.55 330.9 25.65 330.8 23.95 330.55 22.1 330.2 19.15 329.8 16.25 329.35 13.8 328.95 11.35 328.6 11.25 L 328.6 11.1 Q 328.6 11 328.6 10.75 328.5 8.65 327.25 6.25 326.05 3.8 325.9 1.2 M 330.7 82.15 Q 332 80.8 332.65 78.75 333.25 79 334.2 81.9 335.05 84.95 335.8 88.65 336.65 92.3 336.9 94.5 336.55 94.85 335.9 94.95 335.45 94.95 334.6 94.95 333.85 94.95 333.1 94.95 331.05 95.95 328.5 96.45 325.9 96.95 323.6 97.55 323.6 97.15 323.6 96.95 323.6 96.55 323.6 96.3 323.7 94.1 324.7 92.9 325.8 91.55 325.9 89.95 325.8 89.1 325.45 88.75 324.95 88.4 324.95 87.55 325.05 86.45 326.15 85.8 327.25 85.1 327.4 83.5 329.35 83.5 330.7 82.15 Z"/>
</g>
</defs>

<g transform="matrix( 1, 0, 0, 1, 5, 1) ">
<g transform="matrix( 1, 0, 0, 1, 0,0) ">
<use xlink:href="#Symbol_2_0_Layer1_0_FILL"/>
</g>

<g transform="matrix( 1, 0, 0, 1, 0,0) ">
<use xlink:href="#Symbol_2_0_Layer0_0_FILL"/>
</g>
</g>
</svg>